<svg width="52" height="52" viewBox="0 0 52 52" fill="none" xmlns="http://www.w3.org/2000/svg">
<path d="M26 52C40.3594 52 52 40.3594 52 26C52 11.6406 40.3594 0 26 0C11.6406 0 0 11.6406 0 26C0 40.3594 11.6406 52 26 52Z" fill="white"/>
<path d="M28.4267 41.4268V27.3868H33.1067L33.8 21.8402H28.4267V18.3735C28.4267 16.8135 28.9467 15.7735 31.2 15.7735H34.1467V10.7468C33.6267 10.7468 31.8933 10.5735 29.9867 10.5735C25.8267 10.5735 22.88 13.1735 22.88 17.8535V21.8402H18.2V27.3868H22.88V41.4268H28.4267Z" fill="black"/>
</svg>
