<svg width="29" height="29" viewBox="0 0 29 29" fill="none" xmlns="http://www.w3.org/2000/svg">
<path d="M14.5 29C22.5081 29 29 22.5081 29 14.5C29 6.49187 22.5081 0 14.5 0C6.49187 0 0 6.49187 0 14.5C0 22.5081 6.49187 29 14.5 29Z" fill="#D9FF4A"/>
<path d="M15.8533 23.1033V15.2733H18.4633L18.85 12.18H15.8533V10.2467C15.8533 9.37667 16.1433 8.79667 17.4 8.79667H19.0433V5.99333C18.7533 5.99333 17.7867 5.89667 16.7233 5.89667C14.4033 5.89667 12.76 7.34667 12.76 9.95667V12.18H10.15V15.2733H12.76V23.1033H15.8533Z" fill="black"/>
</svg>
