<svg width="29" height="29" viewBox="0 0 29 29" fill="none" xmlns="http://www.w3.org/2000/svg">
<circle cx="14.5" cy="14.5" r="14.5" fill="white"/>
<path d="M9.193 16.647V18H3.66V10.531H9.171V11.884H5.354V13.512H8.973V14.865H5.354V16.647H9.193ZM17.001 10.531V18H15.384L11.776 13.006V18H10.159V10.531H11.776L15.384 15.525V10.531H17.001ZM25.3081 13.908L25.2971 18H23.8231V16.548C23.6984 17.0247 23.4454 17.4097 23.0641 17.703C22.6828 17.989 22.1878 18.132 21.5791 18.132C20.8384 18.132 20.1931 17.978 19.6431 17.67C19.0931 17.3547 18.6678 16.9073 18.3671 16.328C18.0738 15.7413 17.9271 15.0557 17.9271 14.271C17.9271 13.4717 18.0848 12.7823 18.4001 12.203C18.7228 11.6163 19.1664 11.169 19.7311 10.861C20.2958 10.553 20.9338 10.399 21.6451 10.399C22.6204 10.399 23.4088 10.6153 24.0101 11.048C24.6188 11.4807 25.0038 12.093 25.1651 12.885H23.3941C23.2768 12.5183 23.0788 12.2397 22.8001 12.049C22.5214 11.851 22.1401 11.752 21.6561 11.752C21.0474 11.752 20.5524 11.9683 20.1711 12.401C19.7971 12.8337 19.6101 13.4607 19.6101 14.282C19.6101 15.118 19.7934 15.7487 20.1601 16.174C20.5341 16.5993 21.0694 16.812 21.7661 16.812C22.2941 16.812 22.7194 16.6727 23.0421 16.394C23.3721 16.108 23.5664 15.712 23.6251 15.206H21.3151V13.908H25.3081Z" fill="black"/>
</svg>
