<svg width="29" height="29" viewBox="0 0 29 29" fill="none" xmlns="http://www.w3.org/2000/svg">
<circle cx="14.5" cy="14.5" r="14.5" fill="white"/>
<path d="M12.235 10.531C13.1003 10.531 13.7567 10.729 14.204 11.125C14.6587 11.521 14.886 12.0453 14.886 12.698C14.886 13.1233 14.7833 13.512 14.578 13.864C14.38 14.2087 14.0793 14.4837 13.676 14.689C13.28 14.8943 12.7923 14.997 12.213 14.997H10.354V18H8.66V10.531H12.235ZM11.949 13.71C12.3523 13.71 12.6603 13.622 12.873 13.446C13.0857 13.27 13.192 13.0353 13.192 12.742C13.192 12.126 12.774 11.818 11.938 11.818H10.354V13.71H11.949ZM20.7666 16.603V18H15.7176V10.531H17.4116V16.603H20.7666Z" fill="black"/>
</svg>
