<svg width="52" height="52" viewBox="0 0 52 52" fill="none" xmlns="http://www.w3.org/2000/svg">
<path fill-rule="evenodd" clip-rule="evenodd" d="M26 0C40.3491 0 52 11.6353 52 26C52 40.3491 40.3647 52 26 52C11.6509 52 0 40.3647 0 26C0 11.6509 11.6353 0 26 0ZM22.6467 20.8374H27.9808V23.5669H28.0588C28.8074 22.2256 30.6167 20.8374 33.3305 20.8374C38.961 20.8374 40.006 24.3467 40.006 28.901V38.1968H34.4379V29.9616C34.4379 27.9964 34.3911 25.4697 31.5369 25.4697C28.6359 25.4697 28.1992 27.6065 28.1992 29.8212V38.1968H22.6311V20.8374H22.6467ZM18.7942 16.018C18.7942 17.6089 17.4997 18.919 15.8932 18.919C14.3023 18.919 12.9922 17.6245 12.9922 16.018C12.9922 14.4271 14.2867 13.117 15.8932 13.117C17.4841 13.117 18.7942 14.4115 18.7942 16.018ZM13.0078 20.8374H18.7942V38.1968H13.0078V20.8374Z" fill="white"/>
</svg>
