<svg width="29" height="29" viewBox="0 0 29 29" fill="none" xmlns="http://www.w3.org/2000/svg">
<path fill-rule="evenodd" clip-rule="evenodd" d="M14.5 0C22.5024 0 29 6.4889 29 14.5C29 22.5024 22.5111 29 14.5 29C6.4976 29 0 22.5111 0 14.5C0 6.4976 6.4889 0 14.5 0ZM12.6299 11.6209H15.6047V13.1431H15.6482C16.0657 12.395 17.0747 11.6209 18.5882 11.6209C21.7283 11.6209 22.311 13.578 22.311 16.1179V21.302H19.2058V16.7094C19.2058 15.6134 19.1797 14.2043 17.5879 14.2043C15.97 14.2043 15.7265 15.3959 15.7265 16.6311V21.302H12.6212V11.6209H12.6299ZM10.4814 8.93311C10.4814 9.82034 9.75945 10.551 8.86353 10.551C7.97631 10.551 7.24565 9.82903 7.24565 8.93311C7.24565 8.04589 7.96761 7.31524 8.86353 7.31524C9.75075 7.31524 10.4814 8.03719 10.4814 8.93311ZM7.25435 11.6209H10.4814V21.302H7.25435V11.6209Z" fill="#D9FF4A"/>
</svg>
