<svg width="146" height="73" viewBox="0 0 146 73" fill="none" xmlns="http://www.w3.org/2000/svg">
<path d="M98.4014 35.8159L100.636 27.4743H74.2173C74.425 24.3302 102.844 23.551 104.266 13.7703H87.2055C70.2626 17.6202 61.5316 20.3152 57.5317 35.8159H98.4014Z" fill="white"/>
<path d="M32.4674 0.02037C28.2329 -0.0254625 10.1479 0.02037 10.1479 0.02037L7.95837 8.24271L47.3607 8.26562C47.5458 2.76115 42.8913 0.112035 32.4674 0.02037Z" fill="white"/>
<path d="M20.292 35.8157C28.9056 35.7699 33.5826 35.4124 37.9571 32.1537C41.5867 29.4358 43.6589 25.1138 43.3564 20.9522C42.9411 15.1177 38.1693 13.7473 33.42 13.7473H17.5472L15.3125 21.9926C15.3125 21.9926 23.8539 21.9926 25.5288 21.9926C27.3662 21.9926 29.6008 22.3455 28.3684 24.7792C26.7838 27.9004 22.9916 27.4971 17.9896 27.4971C14.0078 27.4971 2.88421 27.4971 2.88421 27.4971L0.672119 35.8157C0.672119 35.8157 15.9852 35.8387 20.292 35.8157Z" fill="white"/>
<path d="M122.12 0.0202637L119.863 8.24268H143.672L145.862 0.0202637H122.12Z" fill="white"/>
<path d="M123.587 35.8159H136.386L142.205 13.7703H129.407L123.587 35.8159Z" fill="white"/>
<path d="M11.2135 49.1989C9.05106 48.4427 7.48904 48.2318 7.34909 47.8514C7.09176 47.1914 8.55898 47.2831 9.58377 47.2831C9.65149 47.2831 15.5655 47.2831 15.5655 47.2831L16.2653 44.5881C16.2653 44.5881 11.7282 44.5881 9.95848 44.5881C7.11885 44.5881 3.1867 44.1389 2.812 47.7552C2.64948 49.2677 3.85937 50.331 6.5139 51.0643C7.84117 51.4173 10.2835 52.0818 10.2158 52.531C10.1707 52.8152 9.70567 52.9068 8.18879 52.9068C6.5139 52.9068 1.41701 52.9068 1.41701 52.9068L0.672119 55.6752C0.672119 55.6752 6.02634 55.6981 7.98112 55.6523C10.8885 55.6064 14.333 55.8402 14.6129 52.3935C14.7529 50.6427 13.6604 50.0285 11.2135 49.1989Z" fill="white"/>
<path d="M20.0347 52.0818H25.109C27.9486 52.0818 30.3007 50.8076 30.716 48.0669C31.0862 45.5873 29.3211 44.5928 26.829 44.5928H18.1521L15.2673 55.6521H19.1092L20.0347 52.0818ZM21.2717 47.3106H25.3212C26.4363 47.3335 26.8335 48.2089 26.1112 49.011C25.8539 49.2952 25.434 49.5793 24.7162 49.5793H20.6667L21.2717 47.3106Z" fill="white"/>
<path d="M114.649 55.675H118.838L121.746 44.5928H118.116L116.324 51.376L112.297 44.5928H107.99L105.083 55.675H108.762L110.577 48.7498L114.649 55.675Z" fill="white"/>
<path d="M135.131 55.675H139.04L139.853 52.6042H135.921L135.131 55.675Z" fill="white"/>
<path d="M137.366 46.4123L136.688 51.4905H139.853L141.672 46.4123L142.16 44.5928H137.831L137.366 46.4123Z" fill="white"/>
<path d="M135.108 47.2648L135.804 44.5928H123.84L120.933 55.675H133.081L133.759 53.0305H125.448L125.913 51.2568H133.709L134.364 48.8231H126.567L126.96 47.2648H135.108Z" fill="white"/>
<path d="M87.5349 53.7134C88.8622 52.508 89.5619 50.8305 89.6748 48.7498C89.8147 45.7982 87.8148 44.5928 84.0408 44.5928H76.8493L73.9646 55.6521H81.3908C84.253 55.6521 86.1851 54.9188 87.5349 53.7134ZM78.5016 52.8655L79.9462 47.4069H82.6458C84.4832 47.4069 85.4628 47.9523 85.368 49.3227C85.3229 50.2439 84.9707 51.0735 84.3432 51.7105C83.6932 52.398 82.6684 52.8701 81.2012 52.8701H78.5016V52.8655Z" fill="white"/>
<path d="M51.8527 52.8884L60.2766 47.2373L61.0215 44.5928H48.6204L47.8755 47.4298H54.3221L46.0336 52.9801L45.3113 55.675H58.1142L58.8591 52.8884H51.8527Z" fill="white"/>
<path d="M74.1496 47.2648L74.8494 44.5928H62.8635L59.9742 55.675H72.1272L72.7998 53.0305H64.4932L64.9582 51.2568H72.7547L73.4047 48.8231H65.6083L66.0056 47.2648H74.1496Z" fill="white"/>
<path d="M46.056 47.4298C46.1237 45.6102 44.9861 44.5928 42.1239 44.5928H33.1628L30.2781 55.6521H34.1199L35.0498 52.0863H38.7742L40.124 55.6521H44.3134L42.5212 51.3301C44.7558 50.9955 45.9883 49.4831 46.056 47.4298ZM39.9344 49.5793H35.6773L36.2597 47.4527H40.6116C41.3113 47.4527 41.7041 47.8285 41.7041 48.2777C41.7041 48.7039 41.3339 49.5793 39.9344 49.5793Z" fill="white"/>
<path d="M93.4669 53.9288H99.5434L99.9135 55.6521H103.94L101.286 44.5928H96.2117L87.8555 55.6521H92.2074L93.4669 53.9288ZM98.0536 47.5948H98.1484L98.961 51.3759H95.3314L98.0536 47.5948Z" fill="white"/>
<path d="M52.0376 24.6646C54.9224 25.4667 57.9245 23.6976 58.7191 20.7414C59.5091 17.7898 57.7665 14.7373 54.8547 13.9582C51.9473 13.1561 48.9407 14.9252 48.1732 17.8814C47.3832 20.8376 49.1303 23.8855 52.0376 24.6646Z" fill="white"/>
<path d="M112.392 24.6646C115.299 25.4667 118.306 23.6976 119.073 20.7414C119.863 17.7898 118.121 14.7373 115.209 13.9582C112.301 13.1561 109.322 14.9252 108.527 17.8814C107.737 20.8376 109.48 23.8855 112.392 24.6646Z" fill="white"/>
<path d="M88.9524 0.0202637H67.0031L64.8407 8.26562H105.687C105.967 2.289 100.383 0.0202637 88.9524 0.0202637Z" fill="white"/>
<path d="M5.15951 63.4668H2.9113L1.43506 69.0354H2.73523L3.14605 67.5046H4.38753C4.94281 67.5046 5.42587 67.4175 5.85023 67.2204C6.27459 67.0417 6.59512 66.7759 6.84341 66.4184C7.09171 66.0746 7.22263 65.6622 7.25423 65.1992C7.28132 64.6493 7.12331 64.2322 6.77118 63.9205C6.39197 63.6135 5.85023 63.4668 5.15951 63.4668ZM5.51164 66.1388C5.26334 66.3313 4.92476 66.4367 4.5004 66.4367H3.40789L3.91803 64.5072H4.92927C5.26786 64.5072 5.51615 64.5668 5.68771 64.6997C5.85926 64.8326 5.936 65.0251 5.92246 65.2955C5.89086 65.6622 5.75994 65.9463 5.51164 66.1388Z" fill="white"/>
<path d="M13.0733 63.6592C12.6806 63.453 12.1975 63.3613 11.6422 63.3613C10.9696 63.3613 10.3556 63.508 9.8139 63.7922C9.27217 64.0901 8.83427 64.4751 8.51375 64.993C8.19322 65.4972 8.00362 66.0609 7.97202 66.7026C7.94493 67.1793 8.01716 67.5918 8.22031 67.963C8.40992 68.3343 8.70335 68.6185 9.09611 68.811C9.48886 69.0172 9.97191 69.1089 10.5272 69.1089C11.1998 69.1089 11.8138 68.9622 12.3555 68.6781C12.8973 68.3801 13.3352 67.9951 13.6557 67.4772C13.9762 66.973 14.1658 66.4093 14.1974 65.7676C14.2245 65.2909 14.1523 64.8784 13.9491 64.5072C13.7731 64.1497 13.4661 63.8655 13.0733 63.6592ZM12.5767 66.9409C12.3871 67.2664 12.1388 67.5368 11.8183 67.7293C11.4978 67.9218 11.1321 68.0272 10.7213 68.0272C10.2383 68.0272 9.87259 67.908 9.6243 67.656C9.376 67.4039 9.25863 67.0601 9.28572 66.6476C9.3128 66.2489 9.41663 65.8914 9.60624 65.5659C9.79585 65.2405 10.0441 64.9701 10.3647 64.7776C10.6852 64.5851 11.0509 64.4797 11.4617 64.4797C11.9447 64.4797 12.3104 64.5988 12.5587 64.8509C12.807 65.103 12.9243 65.4468 12.8973 65.8593C12.8702 66.2443 12.7663 66.6155 12.5767 66.9409Z" fill="white"/>
<path d="M23.2219 63.4668L20.8653 67.3992L20.6486 63.4668H19.4478L17.0957 67.3717L16.861 63.4668H15.5879L15.9265 69.0217H17.3124L19.5787 65.2772L19.8135 69.0217H21.1904L24.5085 63.4668H23.2219Z" fill="white"/>
<path d="M24.1293 69.0217H28.4406L28.734 67.9951H25.6913L26.0299 66.7026H28.6347L28.8966 65.6943H26.3098L26.6303 64.4935H29.5376L29.8311 63.4668H25.619L24.1293 69.0217Z" fill="white"/>
<path d="M33.6322 63.4668H31.366L29.8762 69.0217H31.1764L31.5872 67.4634H32.6842L33.4607 69.0217H34.8195L33.9573 67.2984C34.4674 67.1517 34.8782 66.8813 35.1852 66.5101C35.4922 66.1388 35.6682 65.6943 35.6953 65.1718C35.7405 64.6355 35.5644 64.2047 35.2123 63.9114C34.8466 63.6135 34.3229 63.4668 33.6322 63.4668ZM33.9708 66.1388C33.7225 66.3313 33.3839 66.4368 32.946 66.4368H31.849L32.3592 64.5072H33.3839C33.7225 64.5072 33.9708 64.5668 34.1423 64.6997C34.3184 64.8326 34.3906 65.0251 34.3771 65.2955C34.3636 65.6622 34.2191 65.9463 33.9708 66.1388Z" fill="white"/>
<path d="M36.1333 69.0217H40.4491L40.729 67.9951H37.6863L38.0203 66.7026H40.6252L40.887 65.6943H38.3002L38.6208 64.4935H41.5462L41.8215 63.4668H37.614L36.1333 69.0217Z" fill="white"/>
<path d="M47.1305 63.751C46.7378 63.5585 46.2547 63.4668 45.6814 63.4668H43.3429L41.8667 69.0217H44.5889C45.2751 69.0217 45.8891 68.8888 46.4308 68.623C46.9725 68.3571 47.4104 67.9676 47.731 67.4817C48.0515 66.9959 48.2411 66.4276 48.2862 65.7722C48.3133 65.2955 48.2276 64.8968 48.038 64.5393C47.8348 64.1955 47.5414 63.9251 47.1305 63.751ZM46.6475 66.9409C46.4579 67.2663 46.1961 67.5184 45.8575 67.6972C45.5189 67.8759 45.1397 67.963 44.7018 67.963H43.4422L44.3632 64.5164H45.4737C45.9839 64.5164 46.3811 64.6355 46.6294 64.8739C46.8777 65.1122 46.9951 65.4376 46.968 65.8547C46.9409 66.258 46.8416 66.6155 46.6475 66.9409Z" fill="white"/>
<path d="M57.0306 63.7922C56.7236 63.5676 56.2722 63.4668 55.6718 63.4668H52.9812L51.505 69.0354H54.4303C55.1887 69.0354 55.8027 68.8887 56.2857 68.5908C56.7688 68.2929 57.0171 67.8621 57.0622 67.2846C57.0757 67.0188 57.0351 66.7805 56.9177 66.6017C56.8004 66.4092 56.6243 66.2763 56.3896 66.1709C56.6965 66.0242 56.9448 65.8455 57.1344 65.6072C57.324 65.3688 57.4414 65.0709 57.4549 64.7318C57.4865 64.3284 57.3376 64.003 57.0306 63.7922ZM55.4235 67.8483C55.2203 67.9813 54.9269 68.0546 54.5612 68.0546H53.0399L53.4056 66.675H54.972C55.5273 66.675 55.7891 66.8675 55.7756 67.2525C55.744 67.5046 55.6447 67.7108 55.4235 67.8483ZM55.7756 65.5292C55.586 65.6622 55.3061 65.7355 54.972 65.7355H53.6538L54.006 64.4293H55.3061C55.8478 64.4293 56.1097 64.608 56.0961 64.9472C56.0826 65.2038 55.9652 65.3963 55.7756 65.5292Z" fill="white"/>
<path d="M60.7009 65.9463L59.8702 63.4668H58.5836L59.7799 67.028L59.2563 69.0217H60.5564L61.053 67.0876L64.1996 63.4668H62.8678L60.7009 65.9463Z" fill="white"/>
<path d="M103.584 66.7073L101.796 63.8611H99.6834L98.2117 72.3813H100.379L101.272 67.1748L102.618 69.5535H103.688L105.764 67.1885L104.871 72.3813H107.037L108.509 63.8611H106.342L103.584 66.7073Z" fill="white"/>
<path d="M77.4407 65.754H80.3751L79.2329 72.3813H81.5127L82.6549 65.754H85.6164L85.964 63.8611H77.7883L77.4407 65.754Z" fill="white"/>
<path d="M120.716 65.754H123.646L122.495 72.3813H124.775L125.917 65.754H128.892L129.226 63.8611H121.05L120.716 65.754Z" fill="white"/>
<path d="M74.9982 64.7547C74.1585 63.9022 72.9893 63.3613 71.7027 63.3613C69.1295 63.3613 67.0393 65.4743 67.0393 68.0959C67.0393 69.4022 67.5585 70.5893 68.4117 71.4418L70.0098 69.8193L68.3936 71.4738C69.2333 72.3263 70.4025 72.8672 71.6892 72.8672C74.2624 72.8672 76.3525 70.7543 76.3525 68.1326C76.3525 66.8126 75.8334 65.6393 74.9802 64.773L74.9982 64.7547ZM74.0186 68.128C74.0186 69.4343 72.9622 70.5022 71.6801 70.5022C71.03 70.5022 70.4522 70.2363 70.0188 69.8147L70.064 69.7688C69.617 69.3747 69.3552 68.7697 69.3552 68.1097C69.3552 66.8034 70.4116 65.7355 71.6937 65.7355C72.3437 65.7355 72.9216 66.0013 73.355 66.423L73.3414 66.4368C73.7568 66.8676 74.0186 67.468 74.0186 68.128Z" fill="white"/>
<path d="M95.0923 64.7547C94.2526 63.9022 93.0833 63.3613 91.7967 63.3613C89.2234 63.3613 87.1332 65.4742 87.1332 68.0959C87.1196 69.4159 87.6388 70.603 88.4785 71.4692C89.3182 72.3217 90.4875 72.8625 91.7696 72.8625C94.3429 72.8625 96.4331 70.7496 96.4331 68.128C96.4331 66.8217 95.9139 65.6347 95.0607 64.7867L95.0923 64.7547ZM94.1081 68.1142C94.1081 69.4205 93.0517 70.4884 91.7696 70.4884C91.124 70.4884 90.5507 70.2271 90.1173 69.8055L90.1218 69.8009C89.702 69.3746 89.4446 68.7742 89.4446 68.1142C89.4446 66.808 90.501 65.7401 91.7832 65.7401C92.4332 65.7401 93.0111 66.0059 93.4445 66.4276L93.4174 66.4551C93.8508 66.8676 94.1081 67.468 94.1081 68.1142Z" fill="white"/>
<path d="M138.354 64.7547C137.515 63.9022 136.345 63.3613 135.059 63.3613C132.485 63.3613 130.395 65.4742 130.395 68.0959C130.382 69.4113 130.896 70.5984 131.732 71.4601L131.723 71.4692C132.562 72.3217 133.732 72.8625 135.018 72.8625C137.591 72.8625 139.682 70.7496 139.682 68.128C139.682 66.8263 139.162 65.6438 138.318 64.7913L138.354 64.7547ZM135.032 70.4884C134.386 70.4884 133.813 70.2271 133.379 69.8055L133.384 69.8009C132.964 69.3746 132.707 68.7742 132.707 68.1142C132.707 66.808 133.763 65.7401 135.045 65.7401C135.691 65.7401 136.264 66.0013 136.698 66.423L136.661 66.4597C137.108 66.8721 137.37 67.4726 137.37 68.1188C137.37 69.4205 136.318 70.4884 135.032 70.4884Z" fill="white"/>
<path d="M117.994 64.773C117.145 63.9113 115.963 63.3613 114.658 63.3613C112.053 63.3613 109.936 65.4971 109.936 68.1555C109.936 69.4754 110.464 70.6809 111.326 71.5425L112.992 69.8513C112.541 69.4525 112.274 68.843 112.274 68.1738C112.274 66.8538 113.34 65.7676 114.644 65.7676C115.303 65.7676 115.886 66.0334 116.328 66.4642L117.154 65.6255L116.315 66.478C116.739 66.9088 117.001 67.5184 117.001 68.1875C117.001 69.5075 115.935 70.5938 114.631 70.5938C113.972 70.5938 113.389 70.3279 112.947 69.8971L111.281 71.5883C112.13 72.45 113.312 73 114.617 73C117.222 73 119.339 70.8642 119.339 68.2059C119.366 66.8538 118.843 65.6667 117.98 64.7913L117.994 64.773Z" fill="white"/>
</svg>
