<svg width="90" height="74" viewBox="0 0 90 74" fill="none" xmlns="http://www.w3.org/2000/svg">
<g clip-path="url(#clip0)">
<path fill-rule="evenodd" clip-rule="evenodd" d="M62.23 0C63.5753 0.0916037 64.9237 0.145302 66.2627 0.281129C70.6161 0.723353 74.7714 1.81312 78.4364 4.28642C83.9434 8.00427 86.2285 13.292 85.9362 19.7832C85.7319 24.2971 84.0911 28.1855 80.6587 31.2147C79.4171 32.3108 78.0121 33.2206 76.6605 34.2314C76.9277 34.3451 77.2672 34.4935 77.6098 34.6357C80.0929 35.6623 82.4441 36.9131 84.4934 38.6662C87.5832 41.3101 89.29 44.69 89.7898 48.6731C90.3273 52.9469 89.8904 57.1039 87.995 61.0333C85.5621 66.0747 81.5231 69.4166 76.4059 71.533C71.4396 73.5894 66.2313 74.199 60.8815 73.9463C55.318 73.681 50.3423 71.7225 45.6086 68.9555C42.8143 67.3224 40.0074 65.6862 37.0842 64.2995C32.5799 62.161 27.7488 61.6272 22.8171 62.1105C14.5378 62.9223 7.38382 66.3369 1.03764 71.5583C0.720176 71.8173 0.399567 72.0763 0.0821007 72.3322C-0.0216257 72.2027 -0.00905283 72.0447 0.0412388 71.8994C1.18852 68.529 20.5665 48.0667 45.4923 57.1418C48.1766 58.0799 50.7886 59.2518 53.3535 60.4806C56.1698 61.8325 59.0836 62.5337 62.2048 62.5969C65.0149 62.6538 70.1163 61.7535 72.1406 59.8835C75.1361 57.1196 75.6578 54.7032 75.6421 50.5747C75.6327 47.8645 72.9075 44.8795 70.4872 43.6002C68.6327 42.621 66.6116 42.2483 64.5465 42.1282C63.0378 42.0398 61.5259 42.0335 60.014 42.0335C51.8699 42.0271 43.7258 42.0303 35.5817 42.0303C31.3603 42.0303 28.5629 38.4736 28.5629 33.7891V0H62.23ZM44.0904 28.931C44.3199 28.9468 44.499 28.972 44.6782 28.972C49.415 28.9752 54.1519 29.0289 58.8856 28.9436C60.6772 28.912 62.5003 28.7162 64.2448 28.315C67.9066 27.4748 69.7643 25.3932 70.1383 22.0481C70.4904 18.9083 69.0068 16.3055 66.1056 15.0009C64.5025 14.2807 62.7989 13.9206 61.0513 13.908C55.538 13.8669 50.0217 13.8795 44.5085 13.8732C44.3796 13.8732 44.2476 13.8985 44.0904 13.9174V28.931Z" fill="white"/>
</g>
<defs>
<clipPath id="clip0">
<rect width="90" height="74" fill="white"/>
</clipPath>
</defs>
</svg>
