<svg width="190" height="59" viewBox="0 0 190 59" fill="none" xmlns="http://www.w3.org/2000/svg">
<g clip-path="url(#clip0)">
<path fill-rule="evenodd" clip-rule="evenodd" d="M46.7683 27.2856C40.6199 27.2856 35.6398 32.3556 35.6398 38.613V38.6842V48.0644C35.4509 51.674 32.5124 54.5474 28.913 54.5474C25.2429 54.5474 22.2571 51.5552 22.1863 47.8269C22.1863 46.5208 21.1478 45.4641 19.8615 45.4641C18.7168 45.4641 17.7845 46.7227 17.7845 47.8744C17.8789 54.0487 22.8236 59.0237 28.913 59.0237C35.0615 59.0237 40.0416 53.9537 40.0416 47.7082V47.6488V38.6367C40.0416 34.8609 43.0391 31.7975 46.7565 31.7857C47.3466 31.7857 47.913 31.5482 48.3261 31.1326C48.7391 30.717 48.9752 30.1471 48.9752 29.5534V29.5416C48.9752 28.9479 48.7509 28.3898 48.3379 27.9624C47.913 27.523 47.3584 27.2856 46.7683 27.2856ZM10.9398 31.7263C17.0528 31.7263 22.0093 26.6563 22.0093 20.3989V20.3276V10.9475C22.1981 7.33789 25.1248 4.47635 28.7006 4.47635C32.359 4.47635 35.3211 7.4685 35.3919 11.1968C35.3919 12.5029 36.4304 13.5597 37.705 13.5597C38.8379 13.5597 39.7702 12.3011 39.7702 11.1493C39.6876 4.97505 34.7665 0 28.7006 0C22.5876 0 17.6311 5.07003 17.6311 11.3156V11.3749V20.387C17.6311 24.1628 14.6453 27.2262 10.9516 27.2381C10.3615 27.2381 9.80684 27.4755 9.39379 27.8911C8.98075 28.3067 8.74472 28.8766 8.75653 29.4703V29.4822C8.75653 30.7289 9.73603 31.7263 10.9398 31.7263Z" fill="white"/>
<path fill-rule="evenodd" clip-rule="evenodd" d="M31.1553 47.8505C31.1553 41.605 26.1752 36.535 20.0385 36.535H19.9795H10.7509C7.21056 36.345 4.39006 33.3529 4.39006 29.7077C4.39006 25.9793 7.32857 22.9397 10.987 22.8684C11.2938 22.8684 11.6006 22.8091 11.8839 22.6903C12.1671 22.5716 12.4267 22.3935 12.6391 22.1798C12.8516 21.9661 13.0286 21.7048 13.1466 21.4199C13.2646 21.1349 13.3236 20.8262 13.3236 20.5175C13.3236 19.3539 12.0963 18.404 10.9516 18.404C4.88571 18.4752 0 23.5096 0 29.6958C0 35.9413 4.98012 41.0113 11.1168 41.0113H11.1758H20.0267C23.7323 41.0113 26.7416 44.0629 26.7534 47.8268C26.7534 49.0616 27.7329 50.0828 28.9484 50.0828H28.9602C29.2553 50.0828 29.5385 50.0234 29.7981 49.9047C30.0696 49.7978 30.3056 49.6316 30.5062 49.4179C30.7068 49.216 30.872 48.9667 30.9783 48.6936C31.0963 48.4323 31.1553 48.1355 31.1553 47.8505ZM26.7652 11.6835C26.7652 17.929 31.7453 22.9991 37.882 22.9991H37.941H47.1578C50.6981 23.189 53.5186 26.1812 53.5186 29.8383C53.5186 33.5666 50.5801 36.6062 46.9217 36.6775C45.6354 36.6775 44.5969 37.7342 44.5969 39.0403C44.5969 40.2039 45.8242 41.1538 46.9689 41.1538C53.0348 41.0588 57.9087 36.0363 57.9087 29.8501C57.9087 23.6046 52.9286 18.5346 46.7919 18.5346H46.7329H37.882C34.1764 18.5346 31.1671 15.4831 31.1553 11.7191C31.1553 10.4843 30.1758 9.46313 28.9602 9.46313H28.9484C28.6534 9.46313 28.3702 9.5225 28.1106 9.64124C27.8391 9.75998 27.6031 9.91433 27.4025 10.1281C27.2019 10.3299 27.0366 10.5793 26.9304 10.8523C26.8242 11.1136 26.7652 11.3985 26.7652 11.6835Z" fill="white"/>
<path fill-rule="evenodd" clip-rule="evenodd" d="M85.4882 47.0907C80.1776 47.0907 76.1062 44.7872 74.3124 40.7739C74.159 40.4177 74.1354 40.014 74.2534 39.6459C74.3714 39.2778 74.6192 38.9691 74.9615 38.7673L77.0503 37.5324C77.9 37.0337 78.9975 37.4018 79.3633 38.3042C80.4491 41.0114 83.2932 41.5694 85.4882 41.5694C90.7279 41.5694 91.8254 38.6367 91.8254 36.1788V12.8115C91.8254 11.9566 92.5335 11.2561 93.395 11.2561H95.9677C96.841 11.2561 97.5373 11.9566 97.5373 12.8115V36.167C97.5373 39.5628 96.2745 42.3887 93.8907 44.3597C91.7428 46.1408 88.8279 47.0907 85.4882 47.0907ZM112.997 48.1118C109.917 48.1118 107.297 47.0788 105.432 45.1197C103.591 43.1843 102.612 40.5008 102.612 37.3543V23.0466C102.612 22.1917 103.296 21.4912 104.146 21.4912H106.518C107.368 21.4912 108.052 22.1917 108.052 23.0466V37.3424C108.052 40.8214 109.87 42.7331 113.162 42.7331C117.222 42.7331 119.547 39.9784 119.547 35.1933V23.0466C119.547 22.1917 120.231 21.4912 121.081 21.4912H123.417C124.267 21.4912 124.952 22.1917 124.952 23.0466V46.0339C124.952 46.9007 124.255 47.6012 123.406 47.6012H121.093C120.243 47.6012 119.547 46.9007 119.547 46.0339C117.776 47.4113 115.581 48.1118 112.997 48.1118ZM140.73 47.0907C138.24 47.0907 136.387 46.4851 135.077 45.2503C133.696 43.956 133.024 42.08 133.024 39.5153V26.2644H129.353C128.61 26.2644 128.008 25.6588 128.008 24.9226V22.2273C128.008 21.4793 128.61 20.8856 129.353 20.8856H133.024V16.3855C133.024 15.9106 133.342 15.4831 133.802 15.3525L137.119 14.3789C137.284 14.3314 137.449 14.3195 137.614 14.3551C137.779 14.3789 137.933 14.4501 138.075 14.557C138.204 14.652 138.322 14.7826 138.393 14.9369C138.464 15.0913 138.511 15.2575 138.511 15.4237V20.8975H143.963C144.707 20.8975 145.309 21.503 145.309 22.2392V24.9345C145.309 25.6825 144.707 26.2762 143.963 26.2762H138.523V39.5153C138.523 41.6169 138.912 41.795 140.93 41.795C141.721 41.795 142.689 41.7238 143.597 41.6407L143.845 41.6169C144.034 41.6051 144.223 41.6169 144.388 41.6763C144.565 41.7357 144.73 41.8307 144.86 41.9613C145.002 42.0919 145.108 42.2344 145.179 42.4125C145.25 42.5787 145.297 42.7687 145.297 42.9587V45.464C145.297 46.1289 144.813 46.687 144.152 46.7938L143.952 46.8295C142.76 46.9957 141.697 47.0907 140.73 47.0907ZM149.356 45.9389V22.3104C149.356 21.4793 150.029 20.8025 150.867 20.8025H153.357C154.195 20.8025 154.868 21.4793 154.868 22.3104C156.508 21.0993 158.561 20.4819 160.981 20.4819H161.217C161.972 20.4819 162.574 21.0875 162.574 21.8474V24.5308C162.574 25.2788 161.96 25.8963 161.217 25.8963H160.981C155.304 25.8963 154.868 31.0732 154.868 32.6642V45.9508C154.868 46.592 154.348 47.1026 153.723 47.1026H150.525C150.371 47.1026 150.23 47.0788 150.088 47.0194C149.947 46.9601 149.829 46.877 149.711 46.7701C149.604 46.6632 149.522 46.5326 149.463 46.3901C149.392 46.2358 149.356 46.0814 149.356 45.9389ZM176.818 26.763C172.393 26.763 168.923 30.2895 168.923 34.8015C168.923 39.3016 172.393 42.8399 176.818 42.8399C181.22 42.8399 184.666 39.3135 184.666 34.8015C184.654 30.3014 181.208 26.763 176.818 26.763ZM176.818 48.1118C169.395 48.1118 163.589 42.27 163.589 34.8015C163.589 27.333 169.395 21.4912 176.818 21.4912C184.217 21.4912 190 27.333 190 34.8015C190 42.27 184.206 48.1118 176.818 48.1118Z" fill="white"/>
</g>
<defs>
<clipPath id="clip0">
<rect width="190" height="59" fill="white"/>
</clipPath>
</defs>
</svg>
