<?xml version="1.0" encoding="UTF-8" standalone="no"?>
<svg
   xmlns:dc="http://purl.org/dc/elements/1.1/"
   xmlns:cc="http://creativecommons.org/ns#"
   xmlns:rdf="http://www.w3.org/1999/02/22-rdf-syntax-ns#"
   xmlns:svg="http://www.w3.org/2000/svg"
   xmlns="http://www.w3.org/2000/svg"
   viewBox="0 0 1005.9493 321.98401"
   height="321.98401"
   width="1005.9493"
   xml:space="preserve"
   id="svg2"
   version="1.1"><metadata
     id="metadata8"><rdf:RDF><cc:Work
         rdf:about=""><dc:format>image/svg+xml</dc:format><dc:type
           rdf:resource="http://purl.org/dc/dcmitype/StillImage" /></cc:Work></rdf:RDF></metadata><defs
     id="defs6"><clipPath
       id="clipPath18"
       clipPathUnits="userSpaceOnUse"><path
         id="path16"
         d="M 0,241.488 H 754.462 V 0 H 0 Z" /></clipPath></defs><g
     transform="matrix(1.3333333,0,0,-1.3333333,0,321.984)"
     id="g10"><g
       id="g12"><g
         clip-path="url(#clipPath18)"
         id="g14"><path
           id="path20"
           style="fill:#ffffff;fill-opacity:1;fill-rule:evenodd;stroke:none"
           d="m 165.721,110.849 h 37.617 v 36.828 h -37.617 z m -22.51,40.773 h 18.301 v 18.242 z m -4.785,-40.773 h 23.086 v 36.828 H 139.253 L 125.672,134.14 c -3.919,-3.789 -3.103,-7.721 0.516,-11.297 4.11,-3.992 8.185,-7.992 12.238,-11.994 m 23.086,-22.967 v 19.021 h -19.098 c 6.392,-6.336 12.74,-12.679 19.098,-19.021 m 41.826,93.728 h 4.209 v -29.988 h 30.282 v -3.945 h -30.282 v -36.828 h 30.282 v -3.946 H 207.547 V 76.651 h -4.209 v 30.252 H 165.721 V 83.687 c 8.085,-8.057 16.203,-16.106 24.464,-24.133 l -13.679,-13.942 -67.605,66.026 c -10.4,10.836 -13.901,20.011 -2.104,31.304 22.974,22.885 45.947,45.772 68.92,68.657 l 13.679,-13.942 -23.675,-23.597 v -22.438 h 37.617 z" /><g
           transform="translate(254.1714,151.6113)"
           id="g22"><path
             id="path24"
             style="fill:#ffffff;fill-opacity:1;fill-rule:nonzero;stroke:none"
             d="m 0,0 h 22.217 v -23.094 l 16.235,10.765 H 65.208 L 44.861,-23.682 66.383,-44.738 h -24.49 l -11.488,12.991 -8.188,-4.569 v -8.422 H 0 Z" /></g><g
           transform="translate(327.3364,139.2822)"
           id="g26"><path
             id="path28"
             style="fill:#ffffff;fill-opacity:1;fill-rule:nonzero;stroke:none"
             d="m 0,0 h 20.348 v -5.31 c 1.958,2.299 3.978,3.88 6.061,4.746 2.083,0.864 4.655,1.296 7.718,1.296 3.204,0 6.71,-0.569 10.52,-1.709 l -6.729,-8.85 c -2.564,0.611 -4.593,0.916 -6.088,0.916 -2.849,0 -5.056,-0.672 -6.622,-2.014 -2.243,-1.892 -3.365,-5.432 -3.365,-10.621 V -32.409 H 0 Z" /></g><g
           transform="translate(416.2036,122.2539)"
           id="g30"><path
             id="path32"
             style="fill:#ffffff;fill-opacity:1;fill-rule:nonzero;stroke:none"
             d="m 0,0 c -2.99,-0.611 -6.106,-1.15 -9.346,-1.617 -4.415,-0.672 -7.21,-1.334 -8.384,-1.985 -1.211,-0.671 -1.816,-1.433 -1.816,-2.289 0,-0.976 0.596,-1.775 1.789,-2.395 1.193,-0.62 2.945,-0.931 5.26,-0.931 2.421,0 4.674,0.336 6.756,1.008 2.083,0.67 3.56,1.489 4.432,2.456 C -0.437,-4.787 0,-3.53 0,-1.984 Z m -18.852,6.53 -20.775,1.251 c 0.783,2.076 1.914,3.708 3.392,4.899 1.476,1.189 3.604,2.222 6.381,3.097 1.994,0.631 4.735,1.119 8.225,1.465 3.489,0.346 7.263,0.519 11.322,0.519 6.516,0 11.749,-0.209 15.702,-0.626 3.952,-0.417 7.244,-1.287 9.879,-2.61 1.851,-0.915 3.312,-2.212 4.379,-3.89 1.069,-1.678 1.603,-3.281 1.603,-4.807 V -8.484 c 0,-1.526 0.169,-2.721 0.507,-3.586 0.339,-0.866 1.077,-1.969 2.216,-3.311 H 3.578 c -0.819,0.834 -1.353,1.469 -1.601,1.906 -0.25,0.438 -0.499,1.125 -0.748,2.061 -2.849,-1.566 -5.68,-2.686 -8.492,-3.357 -3.845,-0.895 -8.313,-1.342 -13.405,-1.342 -6.765,0 -11.901,0.894 -15.407,2.685 -3.508,1.789 -5.261,3.998 -5.261,6.621 0,2.463 1.264,4.487 3.792,6.075 2.527,1.586 7.191,2.765 13.992,3.539 8.154,0.935 13.441,1.591 15.862,1.968 2.42,0.377 4.984,0.87 7.69,1.481 0,1.525 -0.552,2.594 -1.655,3.204 -1.104,0.61 -3.044,0.915 -5.822,0.915 -3.56,0 -6.23,-0.325 -8.01,-0.977 -1.389,-0.507 -2.51,-1.464 -3.365,-2.868" /></g><g
           transform="translate(474.8433,151.6113)"
           id="g34"><path
             id="path36"
             style="fill:#ffffff;fill-opacity:1;fill-rule:nonzero;stroke:none"
             d="m 0,0 v -12.329 h 11.963 v -9.095 H 0 v -11.482 c 0,-1.381 0.231,-2.294 0.694,-2.74 0.712,-0.691 1.958,-1.036 3.739,-1.036 1.602,0 3.845,0.264 6.729,0.791 l 1.602,-8.574 c -5.376,-0.67 -10.397,-1.006 -15.06,-1.006 -5.413,0 -9.399,0.397 -11.963,1.189 -2.563,0.792 -4.46,1.995 -5.688,3.611 -1.228,1.616 -1.842,4.232 -1.842,7.849 v 11.398 h -8.012 v 9.095 h 8.012 v 5.95 z" /></g><g
           transform="translate(497.1675,151.6113)"
           id="g38"><path
             id="path40"
             style="fill:#ffffff;fill-opacity:1;fill-rule:nonzero;stroke:none"
             d="m 0,0 h 22.216 v -23.094 l 16.237,10.765 H 65.208 L 44.861,-23.682 66.382,-44.738 h -24.49 l -11.486,12.991 -8.19,-4.569 v -8.422 H 0 Z" /></g><path
           id="path42"
           style="fill:#ffffff;fill-opacity:1;fill-rule:nonzero;stroke:none"
           d="m 570.921,139.282 h 21.736 v -32.409 h -21.736 z m 0,12.329 h 21.736 v -8.453 h -21.736 z" /></g></g></g></svg>