<?xml version="1.0" encoding="utf-8"?>
<!-- Generator: Adobe Illustrator 16.0.3, SVG Export Plug-In . SVG Version: 6.00 Build 0)  -->
<!DOCTYPE svg PUBLIC "-//W3C//DTD SVG 1.1//EN" "http://www.w3.org/Graphics/SVG/1.1/DTD/svg11.dtd" [
	<!ENTITY ns_flows "http://ns.adobe.com/Flows/1.0/">
	<!ENTITY ns_extend "http://ns.adobe.com/Extensibility/1.0/">
	<!ENTITY ns_ai "http://ns.adobe.com/AdobeIllustrator/10.0/">
	<!ENTITY ns_graphs "http://ns.adobe.com/Graphs/1.0/">
]>
<svg version="1.1" id="Warstwa_1" xmlns:x="&ns_extend;" xmlns:i="&ns_ai;" xmlns:graph="&ns_graphs;"
	 xmlns="http://www.w3.org/2000/svg" xmlns:xlink="http://www.w3.org/1999/xlink" xmlns:a="http://ns.adobe.com/AdobeSVGViewerExtensions/3.0/"
	 x="0px" y="0px" width="170.236px" height="60.903px" viewBox="0 0 170.236 60.903" enable-background="new 0 0 170.236 60.903"
	 xml:space="preserve">
<g>
	<path fill-rule="evenodd" clip-rule="evenodd" fill="#FFFFFF" d="M149.48,0c3.652,1.094,4.879,2.728,4.879,6.545
		c0.003,17.165,0.002,34.33,0.001,51.493c0,1.811-0.005,1.812-1.819,1.815c-0.895,0.001-1.79,0.001-2.685,0
		c-3.643-0.005-5.38-1.311-6.363-4.783c-0.072,0.007-0.183-0.014-0.214,0.027c-6.554,8.487-21.702,7.614-27.895-2.613
		c-2.222-3.67-3.32-7.661-3.554-11.908c-0.246-4.471,0.173-8.842,1.924-13.033c4.342-10.389,14.668-13.486,23.416-10.852
		c2.424,0.73,4.49,2.061,6.383,4.265c0-0.721,0-1.139,0-1.558c0-5.897-0.002-11.795,0.003-17.693c0-0.568,0.043-1.137,0.065-1.705
		C145.575,0,147.528,0,149.48,0z M143.829,38.469c0.062-2.904-0.517-5.657-1.95-8.204c-3.496-6.208-11.862-6.884-16.319-1.321
		c-3.417,4.264-3.879,12.357-0.979,17.487c1.977,3.497,5.001,5.343,9.008,5.199c4.142-0.149,7.143-2.237,8.869-6.035
		C143.483,43.339,143.858,40.938,143.829,38.469z"/>
	<path fill-rule="evenodd" clip-rule="evenodd" fill="#FFFFFF" d="M5.939,0c3.646,1.115,4.845,2.721,4.848,6.579
		c0.008,12.61-0.004,25.221,0.015,37.831c0.002,1.253,0.036,2.534,0.284,3.755c0.4,1.964,1.42,2.602,3.399,2.885
		c1.156,0.166,2.437,0.518,3.316,1.22c0.722,0.575,1.164,1.754,1.317,2.729c0.218,1.39,0.107,2.842,0.028,4.261
		c-0.021,0.364-0.412,0.976-0.698,1.016c-3.019,0.431-6.045,0.796-9.094,0.188c-5.304-1.058-8.278-4.125-9.062-9.479
		c-0.188-1.281-0.277-2.589-0.279-3.885C-0.006,31.846,0,16.591,0.003,1.337c0-0.445,0.05-0.892,0.077-1.337
		C2.033,0,3.986,0,5.939,0z"/>
	<path fill-rule="evenodd" clip-rule="evenodd" fill="#FFFFFF" d="M31.487,40.508c0.452,4.159,2.221,7.257,5.682,9.231
		c4.268,2.433,8.715,2.213,13.193,0.594c0.687-0.249,1.344-0.579,2.023-0.852c2.608-1.046,5.296-0.149,6.764,2.258
		c0.254,0.417,0.472,0.854,0.702,1.286c0.905,1.695,0.931,1.735-0.623,2.774c-7.807,5.224-16.191,6.62-25.078,3.341
		c-8.178-3.018-13.558-10.804-13.847-19.537c-0.186-5.608,0.945-10.873,4.381-15.415c4.967-6.565,11.815-8.973,19.779-8.23
		c11.041,1.028,16.234,9.555,16.681,18.836c0.07,1.458-0.068,2.925-0.086,4.388c-0.012,1.044-0.524,1.353-1.538,1.342
		c-4.312-0.045-8.625-0.018-12.937-0.018c-4.475,0-8.95,0-13.425,0C32.678,40.508,32.198,40.508,31.487,40.508z M32.006,32.813
		c6.025,0,12.04,0,18.049,0c0.327-4.74-3.213-8.502-8.049-8.563C36.599,24.182,32.482,27.783,32.006,32.813z"/>
	<path fill-rule="evenodd" clip-rule="evenodd" fill="#FFFFFF" d="M77.088,23.55c2.573-3.619,5.653-6.038,9.688-7.083
		c4.003-1.037,7.986-0.957,11.858,0.554c4.813,1.878,6.909,5.807,7.667,10.621c0.238,1.518,0.3,3.075,0.305,4.615
		c0.028,8.623,0.016,17.245,0.014,25.868c0,1.723-0.005,1.725-1.768,1.728c-1.098,0.003-2.196,0.013-3.294-0.003
		c-3.372-0.049-5.608-2.217-5.63-5.575c-0.039-6.02,0.009-12.039-0.029-18.059c-0.011-1.745-0.025-3.517-0.327-5.225
		c-0.663-3.747-2.95-5.431-6.733-5.196c-6.306,0.39-11.077,4.829-11.525,11.13c-0.322,4.533-0.214,9.098-0.27,13.649
		c-0.032,2.603-0.047,5.206,0.013,7.809c0.025,1.08-0.266,1.572-1.43,1.488c-1.174-0.085-2.358-0.01-3.537-0.021
		c-3.549-0.033-5.814-2.24-5.862-5.785c-0.042-3.172-0.011-6.345-0.011-9.517c0-8.704-0.001-17.408,0.001-26.112
		c0.001-1.618,0.012-1.622,1.638-1.628c1.058-0.004,2.115-0.003,3.173,0c3.749,0.011,5.923,2.126,6.011,5.844
		C77.044,22.848,77.06,23.043,77.088,23.55z"/>
	<path fill-rule="evenodd" clip-rule="evenodd" fill="#FFFFFF" d="M159.422,36.369c-0.001-6.019,0.027-12.037-0.023-18.054
		c-0.01-1.166,0.328-1.615,1.514-1.525c1.132,0.085,2.275,0.013,3.414,0.02c3.584,0.023,5.869,2.263,5.892,5.878
		c0.034,5.571,0.011,11.142,0.011,16.712c0,6.18,0.001,12.361,0,18.542c-0.001,1.91-0.003,1.91-1.966,1.912
		c-1.057,0-2.115,0.01-3.172-0.004c-3.408-0.045-5.657-2.283-5.665-5.671C159.412,48.242,159.422,42.305,159.422,36.369z"/>
	<path fill-rule="evenodd" clip-rule="evenodd" fill="#FFFFFF" d="M169.879,13.226c-2.488-0.353-4.891-0.591-7.247-1.054
		c-2.748-0.54-4.713-3.011-4.795-5.741c-0.079-2.648,1.657-5.091,4.227-5.943c2.615-0.867,5.423,0.08,6.964,2.412
		c0.374,0.566,0.795,1.24,0.813,1.876C169.929,7.645,169.879,10.518,169.879,13.226z"/>
</g>
<g>
</g>
<g>
</g>
<g>
</g>
<g>
</g>
<g>
</g>
<g>
</g>
</svg>
