<svg width="346" height="73" viewBox="0 0 346 73" fill="none" xmlns="http://www.w3.org/2000/svg">
<g clip-path="url(#clip0)">
<path d="M42.014 52.5488L48.5798 52.56L47.6657 55.6806H83.8832L79.9482 47.2327H50.1181L49.4047 49.6957L44.2212 49.6846L46.1051 47.2327H13.6443L0 55.6806H39.6062L42.014 52.5488Z" fill="white"/>
<path d="M30.354 23.3711C30.2537 23.3711 30.1645 23.4602 30.1756 23.5605C30.1756 23.5828 30.1868 23.6163 30.1979 23.6386C31.1343 25.4775 32.4831 27.3944 34.289 29.4117C34.4228 29.5677 34.6123 29.6569 34.8129 29.6569C42.8501 29.9244 50.8873 29.9244 58.9244 29.6569C59.1362 29.6457 59.3369 29.5566 59.4707 29.3894C61.2208 27.283 62.5027 25.3772 63.3945 23.6386C63.4391 23.5494 63.4057 23.4268 63.3053 23.3822C63.283 23.3711 63.2607 23.3599 63.2273 23.3599C52.7266 23.0033 41.7911 22.9921 30.354 23.3711ZM16.1078 26.5586C19.8979 26.9152 23.7548 27.2273 27.6898 27.4947C28.08 27.517 28.4144 27.2273 28.4478 26.8372C28.459 26.7369 28.4367 26.6254 28.4032 26.5363C27.9462 25.366 27.4557 24.1289 26.5862 22.8361C26.2852 22.3792 25.7948 22.0894 25.2486 22.0337C22.707 21.7439 20.0985 21.6993 17.4789 21.7328C16.3419 21.7439 15.4278 22.6801 15.4278 23.8169V25.8118C15.4278 26.2019 15.7288 26.5251 16.1078 26.5586ZM68.3327 22.0337C67.7865 22.0894 67.296 22.3903 66.9951 22.8361C66.1367 24.1289 65.6351 25.3549 65.1781 26.5363C65.0331 26.9041 65.2115 27.3164 65.5794 27.4502C65.6797 27.4836 65.78 27.5059 65.8803 27.4947C69.8153 27.2384 73.6834 26.9263 77.4623 26.5586C77.8525 26.5251 78.1423 26.2019 78.1423 25.8118V23.8169C78.1423 22.6801 77.2283 21.7551 76.0912 21.7328C73.4828 21.7105 70.8855 21.7439 68.3327 22.0337ZM79.3574 34.126C79.0118 34.5496 78.499 34.7947 77.9528 34.817C72.7025 34.9954 67.4632 35.118 62.2129 35.2071C61.5998 36.0764 60.9087 36.9903 60.1172 37.9265C59.9723 38.0937 59.7716 38.194 59.5487 38.2051C51.0991 38.4838 42.6606 38.4838 34.211 38.2051C33.9992 38.194 33.7985 38.1048 33.6536 37.9488C32.8175 37.0126 32.0707 36.0987 31.413 35.196C26.2852 35.1068 21.1575 34.9842 16.0298 34.817C15.5058 34.8059 15.0154 34.5718 14.6698 34.1818C13.9675 33.3905 13.2987 32.6103 12.641 31.8413C12.6856 36.968 13.321 42.117 13.6331 47.2438H22.3614C22.3837 46.2407 22.4952 45.2265 22.5621 44.2234H71.0304C71.0973 45.2265 71.2087 46.2407 71.231 47.2438H79.9482C80.2492 42.2285 80.8623 37.2132 80.9403 32.198C80.4275 32.8332 79.9036 33.4796 79.3574 34.126ZM76.1358 15.2798C75.5227 10.8106 74.2073 6.27459 72.4572 1.25932C59.8385 -0.267546 45.3694 -0.501592 28.3029 1.06986C24.9253 6.10742 22.105 10.9332 20.5333 15.3132C40.9439 14.4439 59.348 14.377 76.1358 15.2798ZM67.441 3.32116L59.0248 12.1257L56.4275 12.0923L65.0109 3.12055C65.8246 3.17627 66.6384 3.25429 67.441 3.32116ZM29.5514 12.4044L38.6253 2.90879C39.5505 2.86421 40.4646 2.81963 41.3786 2.77505L32.249 12.3152L29.5514 12.4044ZM44.0986 2.67474C46.2946 2.60787 48.446 2.57444 50.5528 2.57444C54.6327 2.57444 58.6346 2.69703 62.5362 2.94223L53.819 12.0589C52.7154 12.0477 51.6118 12.0477 50.4971 12.0477C45.5254 12.0477 40.3308 12.1146 34.9355 12.2483L44.0986 2.67474ZM138.505 16.6729L132.508 47.0654H124.56L127.692 31.0389L117.57 44.0674H113.791L108.273 31.0389L105.063 47.0654H97.1596L103.235 16.6729H110.224L117.347 34.2598L131.159 16.6729H138.505ZM144.758 46.1404C142.908 45.2599 141.47 44.0005 140.456 42.3845C139.441 40.7685 138.94 38.885 138.928 36.734C138.928 34.1595 139.553 31.8413 140.801 29.7906C142.05 27.7399 143.766 26.1128 145.973 24.9314C148.169 23.7389 150.644 23.1482 153.398 23.1482C155.883 23.1482 158.057 23.594 159.908 24.4744C161.758 25.3549 163.196 26.6031 164.21 28.208C165.225 29.8129 165.726 31.6853 165.726 33.8363C165.726 36.4108 165.102 38.7401 163.854 40.8019C162.616 42.8638 160.833 44.5578 158.704 45.6834C156.519 46.876 154.033 47.4667 151.257 47.4667C148.783 47.4667 146.609 47.0209 144.758 46.1404ZM155.794 38.9964C156.831 37.7816 157.355 36.199 157.355 34.2598C157.355 32.8667 156.965 31.7744 156.184 30.9609C155.404 30.1473 154.323 29.746 152.929 29.746C151.28 29.746 149.931 30.359 148.894 31.5738C147.857 32.7886 147.333 34.3824 147.333 36.3439C147.333 37.737 147.724 38.8293 148.504 39.6205C149.284 40.4118 150.365 40.8131 151.759 40.8131C153.398 40.8242 154.746 40.2112 155.794 38.9964ZM178.022 38.3054C177.977 38.5618 177.955 38.8293 177.933 39.0856C177.933 40.4118 178.657 41.0806 180.106 41.0806C180.887 41.0806 181.712 40.8465 182.581 40.3896L183.618 46.0735C182.001 46.9986 179.95 47.4667 177.498 47.4667C175.068 47.4667 173.139 46.8537 171.701 45.6389C170.263 44.4241 169.55 42.73 169.55 40.5567C169.539 39.81 169.617 39.0744 169.762 38.3389L171.322 30.5708H167.856L169.115 24.4076H172.549L173.764 18.2889H182.013L180.798 24.4076H186.137L184.922 30.5819H179.582L178.022 38.3054ZM192.346 46.1404C190.496 45.2599 189.058 44.0005 188.043 42.3845C187.029 40.7685 186.527 38.885 186.527 36.734C186.527 34.1595 187.151 31.8413 188.4 29.7906C189.648 27.7399 191.365 26.1128 193.572 24.9314C195.768 23.7389 198.243 23.1482 200.996 23.1482C203.482 23.1482 205.656 23.594 207.506 24.4744C209.357 25.3549 210.795 26.6031 211.809 28.208C212.824 29.8129 213.325 31.6853 213.325 33.8363C213.325 36.4108 212.701 38.7401 211.452 40.8019C210.215 42.8638 208.432 44.5578 206.302 45.6834C204.118 46.876 201.632 47.4667 198.856 47.4667C196.37 47.4667 194.208 47.0209 192.346 46.1404ZM203.382 38.9964C204.419 37.7816 204.943 36.199 204.943 34.2598C204.943 32.8667 204.552 31.7744 203.772 30.9609C202.992 30.1473 201.899 29.746 200.517 29.746C198.867 29.746 197.518 30.359 196.482 31.5738C195.434 32.7886 194.921 34.3824 194.921 36.3439C194.921 37.737 195.311 38.8293 196.092 39.6205C196.872 40.4118 197.964 40.8131 199.347 40.8131C200.996 40.8242 202.345 40.2112 203.382 38.9964ZM238.407 24.4299C239.923 25.288 241.149 26.5251 242.074 28.1412C242.999 29.7572 243.467 31.6518 243.467 33.8251C243.467 36.3996 242.899 38.7289 241.751 40.7908C240.658 42.7969 239.053 44.4909 237.102 45.6723C235.174 46.8537 232.956 47.4667 230.693 47.4555C227.27 47.4555 224.874 46.3856 223.48 44.2457L221.218 55.4911H212.969L219.356 23.5383H227.17L226.691 25.7561C228.575 24.0175 230.849 23.1482 233.513 23.1482C235.241 23.137 236.924 23.5828 238.407 24.4299ZM233.569 38.9964C234.605 37.7816 235.129 36.199 235.129 34.2598C235.129 32.8667 234.728 31.7744 233.937 30.9609C233.145 30.1473 232.053 29.746 230.659 29.746C229.009 29.746 227.661 30.359 226.624 31.5738C225.576 32.7886 225.063 34.3824 225.063 36.3439C225.063 37.737 225.465 38.8293 226.256 39.6205C227.048 40.4118 228.14 40.8131 229.533 40.8131C231.172 40.8242 232.521 40.2112 233.569 38.9964ZM271.001 37.347H253.712C254.002 39.8992 255.785 41.1697 259.051 41.1697C260.088 41.1697 261.114 41.0137 262.095 40.6905C263.064 40.3784 263.956 39.8992 264.748 39.2639L268.181 44.4352C265.428 46.4636 262.083 47.4778 258.148 47.4778C255.663 47.4778 253.467 47.032 251.572 46.1515C249.676 45.2711 248.216 44.0228 247.179 42.418C246.154 40.8131 245.641 38.9184 245.641 36.7563C245.641 34.1818 246.243 31.8636 247.447 29.7906C248.64 27.7288 250.39 26.0459 252.486 24.9314C254.637 23.7612 257.112 23.1705 259.887 23.1705C262.228 23.1705 264.279 23.594 266.03 24.4522C267.78 25.3103 269.128 26.514 270.065 28.0743C271.001 29.6346 271.469 31.4401 271.481 33.5019C271.469 34.6164 271.313 35.8981 271.001 37.347ZM256.153 30.0693C255.25 30.7825 254.604 31.7522 254.202 33.0004H263.889C263.923 31.7522 263.533 30.7825 262.719 30.0693C261.905 29.356 260.835 29.0105 259.508 29.0105C258.16 29.0105 257.045 29.3671 256.153 30.0693ZM304.008 14.8563L297.576 47.0766H289.762L290.241 44.7807C288.358 46.5751 286.083 47.4778 283.419 47.4778C281.703 47.4889 280.019 47.0431 278.537 46.1961C277.021 45.338 275.795 44.1009 274.869 42.4848C273.944 40.8688 273.476 38.9518 273.487 36.7563C273.487 34.2152 274.056 31.897 275.204 29.8352C276.296 27.818 277.913 26.135 279.874 24.9537C281.814 23.7723 284.032 23.1593 286.306 23.1705C289.662 23.1705 292.058 24.207 293.474 26.2911L295.77 14.8674L304.008 14.8563ZM290.319 38.9964C291.356 37.7816 291.88 36.199 291.88 34.2598C291.88 32.8667 291.49 31.7744 290.71 30.9609C289.929 30.1473 288.837 29.746 287.455 29.746C285.805 29.746 284.456 30.359 283.419 31.5738C282.371 32.7886 281.859 34.3824 281.859 36.3439C281.859 37.737 282.249 38.8293 283.029 39.6205C283.809 40.4118 284.891 40.8131 286.284 40.8131C287.934 40.8242 289.283 40.2112 290.319 38.9964ZM307.564 23.5383H315.769L311.076 47.0654H302.871L307.564 23.5383ZM309.392 19.7601C308.974 19.4015 308.64 18.9548 308.414 18.4518C308.189 17.9489 308.077 17.4023 308.088 16.8512C308.088 15.4915 308.568 14.3659 309.548 13.4854C310.518 12.605 311.8 12.1592 313.394 12.1592C314.843 12.1592 316.003 12.527 316.872 13.2625C317.719 13.9647 318.199 15.0123 318.176 16.1045C318.176 17.5199 317.686 18.679 316.705 19.5818C315.724 20.4734 314.431 20.9303 312.837 20.9303C311.399 20.9303 310.262 20.5402 309.392 19.7601ZM346 23.5383L341.307 47.0654H333.493L333.972 44.8476C332.088 46.5862 329.814 47.4555 327.15 47.4555C325.433 47.4667 323.75 47.0209 322.267 46.1738C320.751 45.3157 319.525 44.0786 318.6 42.4625C317.675 40.8465 317.207 38.9296 317.207 36.734C317.207 34.1929 317.775 31.8747 318.923 29.8129C320.016 27.8068 321.621 26.1128 323.572 24.9314C325.5 23.75 327.719 23.137 329.981 23.1482C333.404 23.1482 335.8 24.2181 337.194 26.358L337.762 23.5383H346ZM334.061 38.9964C335.098 37.7816 335.622 36.199 335.622 34.2598C335.622 32.8667 335.221 31.7744 334.429 30.9609C333.638 30.1473 332.545 29.746 331.152 29.746C329.502 29.746 328.153 30.359 327.117 31.5738C326.069 32.7886 325.556 34.3824 325.556 36.3439C325.556 37.737 325.957 38.8293 326.749 39.6205C327.54 40.4118 328.633 40.8131 330.026 40.8131C331.665 40.8242 333.013 40.2112 334.061 38.9964ZM234.104 64.2734L231.874 67.8064L231.607 64.2734H230.447L228.218 67.7841L227.939 64.2734H226.702L227.114 69.2663H228.463L230.592 65.9117L230.882 69.2663H232.22L235.341 64.2734H234.104ZM235.062 69.2663H239.243L239.51 68.3413H236.556L236.868 67.1822H239.388L239.622 66.2906H237.114L237.403 65.1984H240.235L240.502 64.2734H236.422L235.062 69.2663ZM245.719 64.6746C245.363 64.4071 244.85 64.2734 244.181 64.2734H241.985L240.636 69.2552H241.896L242.275 67.8621H243.345L244.114 69.2552H245.429L244.571 67.7172C245.028 67.6057 245.429 67.3605 245.742 67.0151C246.031 66.6807 246.199 66.2572 246.21 65.8225C246.232 65.3321 246.076 64.9532 245.719 64.6746ZM244.549 66.6807C244.315 66.859 243.98 66.9482 243.568 66.9482H242.498L242.966 65.2207H243.958C244.281 65.2207 244.526 65.2764 244.694 65.399C244.861 65.5216 244.95 65.7222 244.928 65.934C244.939 66.2349 244.794 66.5135 244.549 66.6807ZM246.689 69.2663H250.869L251.126 68.3413H248.183L248.484 67.1822H251.003L251.248 66.2906H248.74L249.03 65.1984H251.861L252.118 64.2734H248.038L246.689 69.2663ZM257.268 64.5297C256.822 64.3514 256.343 64.2622 255.863 64.2734H253.6L252.252 69.2552H254.893C255.507 69.2663 256.108 69.1438 256.666 68.8986C257.167 68.6757 257.591 68.3302 257.903 67.8732C258.215 67.4274 258.394 66.8925 258.416 66.3464C258.449 65.9563 258.36 65.5773 258.16 65.243C257.937 64.9309 257.636 64.6746 257.268 64.5297ZM256.844 67.394C256.666 67.6838 256.398 67.9178 256.097 68.0738C255.752 68.241 255.373 68.3302 254.983 68.319H253.768L254.604 65.2318H255.674C256.175 65.2318 256.543 65.3321 256.8 65.5439C257.056 65.7668 257.179 66.09 257.145 66.4244C257.123 66.7699 257.023 67.1042 256.844 67.394ZM266.866 64.5631C266.565 64.3625 266.119 64.2622 265.539 64.2622H262.931L261.582 69.2441H264.413C265.149 69.2441 265.74 69.1103 266.197 68.8428C266.631 68.6088 266.91 68.163 266.921 67.6726C266.944 67.4609 266.888 67.238 266.765 67.0596C266.632 66.8813 266.453 66.7476 266.252 66.6807C266.531 66.5804 266.788 66.4132 266.988 66.1903C267.178 65.9674 267.278 65.6999 267.289 65.4102C267.323 65.0758 267.155 64.7415 266.866 64.5631ZM265.361 68.2076C265.104 68.3413 264.826 68.4082 264.536 68.397H263.064L263.399 67.1711H264.915C265.45 67.1711 265.717 67.3383 265.695 67.6838C265.684 67.8955 265.561 68.0961 265.361 68.2076ZM265.662 66.1346C265.428 66.2683 265.149 66.3352 264.881 66.3129H263.611L263.934 65.1427H265.205C265.74 65.1427 265.996 65.2987 265.974 65.6108C265.963 65.8337 265.851 66.0231 265.662 66.1346ZM270.444 66.5024L269.608 64.2734H268.359L269.563 67.4831L269.095 69.2663H270.344L270.812 67.5277L273.799 64.2734H272.506L270.444 66.5024Z" fill="white"/>
<path d="M311.611 67.2379L309.905 64.5742H307.899L306.494 72.5652H308.556L309.415 67.6837L310.685 69.9015H311.7L313.684 67.6948L312.837 72.5652H314.899L316.304 64.5742H314.23L311.611 67.2379Z" fill="white"/>
<path d="M286.719 66.3463H289.517L288.424 72.5652H290.598L291.679 66.3463H294.511L294.834 64.5742H287.042L286.719 66.3463ZM327.919 66.3463H330.706L329.625 72.5652H331.787L332.88 66.3463H335.7L336.034 64.5742H328.242L327.919 66.3463ZM282.817 66.9927C283.653 67.8954 283.609 69.2997 282.706 70.1467C281.847 70.938 280.532 70.938 279.674 70.1467L278.113 71.707C279.841 73.4345 282.661 73.4345 284.389 71.707C286.117 69.9796 286.117 67.1599 284.389 65.4324L282.817 66.9927Z" fill="white"/>
<path d="M279.016 68.5642C279.016 67.3383 280.019 66.3352 281.246 66.3352C281.836 66.3352 282.394 66.5693 282.817 66.9816L284.378 65.4213C282.65 63.6939 279.83 63.6939 278.102 65.4213C276.374 67.1488 276.374 69.9685 278.102 71.696L279.663 70.1357C279.25 69.7233 279.016 69.1549 279.016 68.5642Z" fill="white"/>
<path d="M298.134 68.564C298.134 67.338 299.137 66.335 300.363 66.335C300.954 66.335 301.511 66.569 301.935 66.9814L303.495 65.4211C301.723 63.7382 298.914 63.8051 297.22 65.5771C295.592 67.2935 295.592 69.9794 297.22 71.6846L298.78 70.1243C298.368 69.7231 298.134 69.1547 298.134 68.564Z" fill="white"/>
<path d="M301.935 66.9927C302.771 67.8954 302.726 69.2997 301.823 70.1467C300.965 70.938 299.65 70.938 298.791 70.1467L297.231 71.707C298.981 73.4234 301.79 73.3899 303.507 71.629C305.19 69.9015 305.19 67.1487 303.507 65.4324L301.935 66.9927Z" fill="white"/>
<path d="M339.334 68.5642C339.334 67.3383 340.337 66.3352 341.563 66.3352C342.154 66.3352 342.711 66.5692 343.135 66.9816L344.696 65.4213C342.946 63.705 340.136 63.7384 338.42 65.4993C336.737 67.2268 336.737 69.9796 338.42 71.696L339.98 70.1357C339.557 69.7233 339.334 69.1549 339.334 68.5642Z" fill="white"/>
<path d="M344.696 65.4214L343.135 66.9817C343.971 67.8844 343.927 69.2887 343.024 70.1357C342.165 70.927 340.85 70.927 339.992 70.1357L338.431 71.696C340.181 73.4124 342.99 73.3789 344.707 71.618C346.39 69.9017 346.39 67.1489 344.696 65.4214Z" fill="white"/>
<path d="M324.018 66.9927C324.854 67.8954 324.809 69.2997 323.906 70.1467C323.048 70.938 321.732 70.938 320.874 70.1467L319.313 71.707C321.064 73.4234 323.873 73.3899 325.589 71.629C327.273 69.9015 327.273 67.1487 325.589 65.4324L324.018 66.9927Z" fill="white"/>
<path d="M320.216 68.5642C320.216 67.3383 321.22 66.3352 322.446 66.3352C323.037 66.3352 323.594 66.5692 324.018 66.9816L325.578 65.4213C323.828 63.705 321.019 63.7384 319.302 65.4993C317.619 67.2268 317.619 69.9796 319.302 71.696L320.863 70.1357C320.439 69.7233 320.205 69.1549 320.216 68.5642Z" fill="white"/>
<path d="M218.174 64.719L218.141 64.6856C217.784 64.4181 217.271 64.2732 216.603 64.2732H214.418L214.295 64.719L213.058 69.2551H214.317L214.685 67.8842H215.889C216.369 67.8954 216.848 67.8062 217.294 67.639C217.673 67.4942 217.996 67.249 218.241 66.9258C218.475 66.6026 218.609 66.2236 218.62 65.8335C218.676 65.41 218.498 64.9865 218.174 64.719ZM216.982 66.6806C216.748 66.8589 216.424 66.948 216.001 66.948H214.942L215.41 65.2206H216.391C216.714 65.2206 216.959 65.2763 217.127 65.3989C217.294 65.5215 217.383 65.7221 217.361 65.9338C217.361 66.2236 217.216 66.5022 216.982 66.6806ZM225.141 65.2206C224.941 64.8862 224.629 64.6187 224.272 64.4627C224.149 64.407 224.027 64.3624 223.893 64.329C223.558 64.2398 223.224 64.1952 222.879 64.1952C222.265 64.1841 221.663 64.3178 221.117 64.5853L220.883 64.719C220.482 64.9531 220.136 65.2763 219.88 65.6552C219.579 66.1122 219.401 66.636 219.378 67.1821C219.345 67.5722 219.434 67.9734 219.635 68.3189C219.835 68.6532 220.136 68.9207 220.504 69.0767C220.939 69.2662 221.418 69.3554 221.898 69.3442C222.511 69.3554 223.113 69.2216 223.659 68.9542C224.16 68.709 224.584 68.3412 224.896 67.8842C225.197 67.4273 225.376 66.9035 225.398 66.3574C225.431 65.9561 225.342 65.5661 225.141 65.2206ZM223.837 67.3939C223.659 67.6836 223.414 67.9288 223.113 68.096C222.789 68.2743 222.421 68.3635 222.054 68.3635C221.585 68.3635 221.229 68.252 220.983 68.0291C220.738 67.7951 220.616 67.4607 220.649 67.1152C220.66 66.7697 220.761 66.4354 220.939 66.1345C221.117 65.8447 221.362 65.5995 221.663 65.4323C221.987 65.254 222.355 65.1648 222.722 65.1648C223.191 65.1648 223.547 65.2763 223.793 65.4992C224.038 65.7332 224.16 66.0676 224.127 66.4131C224.116 66.7697 224.016 67.1041 223.837 67.3939Z" fill="white"/>
</g>
<defs>
<clipPath id="clip0">
<rect width="346" height="73" fill="white"/>
</clipPath>
</defs>
</svg>
