<svg width="237" height="48" viewBox="0 0 237 48" fill="none" xmlns="http://www.w3.org/2000/svg">
<path d="M126.481 48.0002C124.543 48.0002 122.782 48.0002 120.942 48.0002C120.942 35.727 120.942 23.4947 120.942 11.1852C122.753 11.1852 124.541 11.1852 126.439 11.1852C126.439 12.3043 126.439 13.4112 126.439 14.5206C126.526 14.5737 126.614 14.6268 126.701 14.6798C126.871 14.4362 127.022 14.1734 127.216 13.9491C129.213 11.6603 131.775 10.5968 134.719 10.4279C141.994 10.0083 147.548 15.8085 148.258 22.4697C148.759 27.1557 147.503 31.2339 144.197 34.538C141.463 37.2681 138.112 38.4209 134.287 38.117C133.586 38.0615 133.031 37.7986 132.526 37.2801C130.625 35.3338 129.44 32.9945 128.651 30.3295C129.456 30.877 130.122 31.4654 130.89 31.8272C133.728 33.1633 136.564 33.1054 139.208 31.3545C141.942 29.5457 142.991 26.7963 142.759 23.567C142.521 20.2509 140.932 17.7162 137.862 16.5007C134.658 15.2321 131.577 15.6517 128.972 18.1117C127.194 19.7903 126.5 21.9825 126.496 24.4087C126.481 31.9237 126.486 39.441 126.481 46.956C126.481 47.2671 126.481 47.5806 126.481 48.0002Z" fill="white"/>
<path d="M179.456 37.4126C177.612 37.4126 175.853 37.4126 174.004 37.4126C174.004 36.2622 174.004 35.1504 174.004 33.8022C173.648 34.1567 173.44 34.3449 173.253 34.5547C170.559 37.5718 167.143 38.5461 163.306 38.0445C156.952 37.2148 152.806 31.7763 152.185 26.3234C151.552 20.7643 153.24 16.1652 157.663 12.8008C160.546 10.6085 163.851 9.96698 167.469 10.6929C169.893 12.7091 171.284 15.4079 172.113 18.7337C170.779 17.4578 169.527 16.5124 167.941 16.1314C162.118 14.7374 157.592 18.8567 157.615 24.189C157.634 28.4168 160.038 31.7209 163.906 32.5095C169.546 33.6623 173.997 29.736 173.938 24.0443C173.896 19.7924 173.929 15.5381 173.929 11.1439C174.897 11.1319 175.782 11.115 176.67 11.1101C177.572 11.1053 178.472 11.1077 179.454 11.1077C179.456 19.8913 179.456 28.588 179.456 37.4126Z" fill="white"/>
<path d="M224.989 24.0227C228.903 28.494 232.721 32.8593 236.738 37.4488C234.384 37.4705 232.289 37.4584 230.086 37.456C226.651 33.5104 223.185 29.5287 219.556 25.3636C219.556 29.4804 219.556 33.3778 219.556 37.4271C218.559 37.4391 217.671 37.4536 216.786 37.4609C215.884 37.4657 214.98 37.4633 214.094 37.4633C213.832 36.5444 213.728 3.34683 213.971 0.568513C214.84 0.556454 215.728 0.539572 216.616 0.534748C217.52 0.527513 218.422 0.532337 219.461 0.532337C219.558 2.0035 219.492 3.43607 219.504 4.86382C219.515 6.35186 219.506 7.83749 219.506 9.32553C219.506 10.7726 219.506 12.2196 219.506 13.6667C219.506 15.1547 219.506 16.6403 219.506 18.1284C219.506 19.5513 219.506 20.9742 219.506 22.3971C219.582 22.4237 219.657 22.4502 219.73 22.4791C222.967 18.7192 226.205 14.9593 229.468 11.1681C231.656 11.1681 233.848 11.1681 236.277 11.1681C232.459 15.5165 228.755 19.737 224.989 24.0227Z" fill="white"/>
<path d="M209.662 17.2577C208.13 18.1742 206.586 19.0979 205.046 20.0167C202.501 16.4305 199.309 15.215 195.651 16.4064C192.298 17.4989 190.206 20.5208 190.204 24.2783C190.202 27.9851 192.244 30.995 195.524 32.1285C198.435 33.1342 202.532 32.6687 205.117 28.5543C205.887 29.0029 206.659 29.4587 207.438 29.9073C208.222 30.3583 209.008 30.802 209.787 31.2458C207.66 35.9607 201.691 39.2021 195.339 37.8733C188.834 36.513 184.502 30.8864 184.596 23.9865C184.688 17.3228 189.203 11.8554 195.55 10.652C202.149 9.40027 207.931 13.0251 209.662 17.2577Z" fill="white"/>
<path d="M40.2427 37.4537C37.6124 37.4537 35.1143 37.4537 32.5525 37.4537C32.5525 28.687 32.5525 19.9879 32.5525 11.214C35.0742 11.214 37.577 11.214 40.1837 11.214C40.2262 11.8579 40.2687 12.5188 40.3136 13.2278C43.9049 9.29426 50.934 9.45585 53.9185 13.7946C54.1334 13.5582 54.3388 13.3315 54.5442 13.1072C55.9444 11.5589 57.7223 10.7702 59.7317 10.5267C62.9617 10.1335 65.9202 10.7485 68.3239 13.1747C69.7713 14.6338 70.5882 16.4402 70.9637 18.4516C71.1407 19.3922 71.2376 20.3641 71.2423 21.3216C71.2682 26.4248 71.2541 31.5281 71.2541 36.6313C71.2541 36.8676 71.2541 37.1016 71.2541 37.3162C70.312 37.5767 64.7916 37.6129 63.4883 37.3645C63.4883 36.9569 63.4883 36.5252 63.4883 36.0911C63.4883 31.7523 63.4906 27.4112 63.4859 23.0725C63.4859 22.431 63.5001 21.7822 63.434 21.1455C63.1128 18.0971 59.9017 16.638 57.4343 18.4106C57.2123 18.5698 57.0164 18.77 56.7495 19.0015C56.4733 18.7362 56.1994 18.4782 55.798 18.0947C55.628 19.807 55.739 21.3819 55.7201 22.9519C55.6988 24.5581 55.7154 26.1668 55.7154 27.773C55.7154 29.3792 55.7154 30.9878 55.7154 32.594C55.7154 34.1906 55.7154 35.7872 55.7154 37.4537C53.0898 37.4537 50.594 37.4537 47.9472 37.4537C47.9472 36.9786 47.9472 36.5469 47.9472 36.1176C47.9472 31.6173 47.9495 27.117 47.9448 22.6167C47.9448 22.1343 47.9401 21.652 47.8952 21.1721C47.6001 18.1164 44.566 16.6476 42.0372 18.3383C41.7421 18.5336 41.4705 18.7652 41.1919 18.9798C40.9228 18.7266 40.6725 18.4902 40.2427 18.085C40.2427 24.6643 40.2427 31.0312 40.2427 37.4537Z" fill="white"/>
<path d="M4.23279 14.9808C6.53019 16.1673 8.62689 17.5203 10.0979 19.7729C9.89482 20.0502 9.70357 20.2986 9.52648 20.5567C7.52895 23.4893 8.25382 27.8112 11.0943 29.6151C13.0895 30.8837 15.2098 30.9271 17.271 29.8322C19.304 28.7542 20.206 26.8947 20.2744 24.5987C20.3453 22.2208 19.5472 20.26 17.4977 18.9867C15.8898 17.9882 14.1614 17.8941 12.3858 18.4585C12.0506 18.5646 11.7294 18.7165 11.2903 18.8926C10.1805 16.6015 9.01175 14.3272 6.92214 12.7572C10.8889 9.54955 19.2686 9.09856 24.5316 14.9253C29.3908 20.3059 29.1972 29.0942 24.0712 34.2384C18.7208 39.6045 10.0483 39.6238 4.69321 34.2794C-0.456449 29.1352 -0.713815 20.4433 4.23279 14.9808Z" fill="white"/>
<path d="M101.406 37.4461C98.7827 37.4461 96.2893 37.4461 93.659 37.4461C93.659 36.971 93.659 36.5417 93.659 36.1124C93.659 31.7737 93.6708 27.4326 93.6496 23.0938C93.6448 22.3366 93.5882 21.56 93.4111 20.8292C93.0428 19.3074 92.07 18.3162 90.5801 17.8917C88.7762 17.378 87.2957 17.7374 85.4847 19.1265C85.1872 18.8347 84.8803 18.5381 84.4789 18.145C84.4293 18.4922 84.3608 18.7479 84.3584 19.0011C84.3443 24.7411 84.3395 30.4786 84.3301 36.2185C84.3301 36.6092 84.29 36.9975 84.2664 37.4509C81.7258 37.4509 79.2631 37.4509 76.8146 37.4509C76.7744 37.4099 76.7437 37.3834 76.7201 37.352C76.6941 37.3231 76.6564 37.2918 76.654 37.258C76.6304 37.0192 76.6021 36.7781 76.6021 36.5393C76.6044 28.2212 76.6068 19.9031 76.6162 11.585C76.6162 11.4741 76.6729 11.3656 76.7178 11.2016C79.2229 11.2016 81.7187 11.2016 84.29 11.2016C84.29 11.9323 84.29 12.6052 84.29 13.4179C84.5166 13.2684 84.6441 13.2129 84.7362 13.1213C87.0714 10.7264 89.9803 10.1211 93.1065 10.5214C97.8241 11.1244 100.603 14.6696 101.224 19.0855C101.352 19.9972 101.399 20.9257 101.404 21.847C101.42 26.5885 101.411 31.3299 101.411 36.0714C101.406 36.5055 101.406 36.9372 101.406 37.4461Z" fill="white"/>
<path d="M106.761 11.2041C109.372 11.2041 111.871 11.2041 114.423 11.2041C114.423 19.9587 114.423 28.6529 114.423 37.487C111.866 37.5401 109.346 37.5546 106.761 37.475C106.761 28.6722 106.761 19.9828 106.761 11.2041Z" fill="white"/>
</svg>
