<svg width="228" height="39" viewBox="0 0 228 39" fill="none" xmlns="http://www.w3.org/2000/svg">
<path d="M23.7072 18.0178C27.6889 18.0178 29.453 16.6298 29.453 13.2369C29.453 9.89544 27.6889 8.45602 23.7072 8.45602H7.47763V18.0178H23.7072ZM0.622925 2.64697H24.9168C31.9731 2.64697 36.3077 7.42787 36.3077 13.2369C36.3077 20.2798 31.4691 23.7755 24.9168 23.7755H7.52804V37.2957H0.622925V2.64697Z" fill="white"/>
<path d="M39.7854 36.1647V30.5099C43.8679 32.1035 47.3961 32.6176 51.6803 32.6176C57.6782 32.6176 60.2487 31.9493 60.2487 29.893C60.2487 24.5981 38.6765 30.6641 38.6765 19.92C38.6765 14.368 44.4224 11.6948 52.9404 11.6948C55.8637 11.6948 60.8535 12.2603 65.0873 13.0828V18.532C61.66 17.8123 57.3254 17.2468 53.6964 17.2468C48.0009 17.2982 45.4808 18.1721 45.4808 19.8686C45.4808 24.6495 67.1034 19.1489 67.1034 29.9444C67.1034 35.702 61.3575 38.1182 52.8396 38.1182C49.0594 38.1182 43.8175 37.3471 39.7854 36.1647Z" fill="white"/>
<path d="M70.682 12.5687H77.5871V37.3472H70.682V12.5687ZM69.7748 4.29212C69.7748 1.61893 71.4381 0.33374 74.0086 0.33374C76.6295 0.33374 78.3431 1.61893 78.3431 4.29212C78.3431 7.01672 76.6799 8.30191 74.0086 8.30191C71.4381 8.30191 69.7748 7.01672 69.7748 4.29212Z" fill="white"/>
<path d="M109.744 31.3324C113.373 31.3324 115.489 29.9444 115.489 26.6543C115.489 23.5184 113.423 22.1304 109.744 22.1304H92.0021L92.0525 31.281H109.744V31.3324ZM85.1475 2.64697H110.399C117.455 2.64697 121.336 6.50254 121.336 11.7975C121.336 16.8869 117.657 19.303 111.911 19.6629C118.262 19.8171 122.445 22.6959 122.445 28.0937C122.445 33.6457 118.06 37.2957 111.457 37.2957H85.1475V2.64697ZM108.685 17.2467C112.314 17.2467 114.431 16.0129 114.431 12.9799C114.431 9.84403 112.365 8.50743 108.685 8.50743H92.0021L92.0525 17.2467H108.685Z" fill="white"/>
<path d="M155.61 37.2955H148.05L149.007 27.1168H148.604C147.596 33.697 143.967 38.1694 136.659 38.118C129.804 38.0666 126.578 34.1082 126.578 23.3127V12.5686H133.483V22.4902C133.483 29.9442 135.449 32.823 140.136 32.823C145.378 32.823 148.755 27.5281 148.755 19.4058V12.5686H155.66V37.2955H155.61Z" fill="white"/>
<path d="M163.624 17.6582H160.448V12.5689H163.624V11.5922C163.624 5.2177 165.589 2.23608 171.486 2.23608C173.15 2.23608 174.712 2.54453 177.131 3.00719V6.86273C176.527 6.86273 175.972 6.81132 175.468 6.81132C170.882 6.81132 170.529 7.89087 170.529 12.5689H177.131V17.1956H170.529V37.3472H163.624V17.6582Z" fill="white"/>
<path d="M201.476 23.2614C201.274 18.789 198.653 17.1954 193.411 17.1954C188.321 17.1954 185.7 18.9946 185.246 23.6727L201.476 23.2614ZM178.795 24.9579C178.795 17.0412 184.642 11.7976 193.411 11.7976C202.081 11.7976 207.877 16.3215 208.028 23.0558V27.0656H185.398C186.154 31.1268 189.43 32.7718 195.831 32.7718C201.778 32.7718 204.198 31.2296 206.97 30.0472V35.702C202.282 37.5527 199.561 38.1182 193.411 38.1182C184.642 38.1182 178.795 32.8746 178.795 24.9579Z" fill="white"/>
<path d="M213.875 28.4023V17.6582H210.397V12.5689H214.883V6.60564L220.83 5.62891V12.5689H227.836V17.6582H220.83V26.9115C220.83 31.9494 220.83 33.1832 225.266 33.1832C225.971 33.1832 226.828 33.1318 227.836 33.0804V36.8331C225.82 37.5014 223.854 37.8098 221.233 37.8098C214.832 37.8098 213.875 35.4965 213.875 28.4023Z" fill="white"/>
</svg>
