<svg width="229" height="45" viewBox="0 0 229 45" fill="none" xmlns="http://www.w3.org/2000/svg">
<path d="M156.347 44.9337C154.568 42.2937 152.864 39.7643 151.159 37.2349C149.433 34.6734 147.711 32.1119 145.957 29.5111C146.241 29.3827 146.466 29.2757 146.694 29.1758C153.534 26.2254 157.182 18.9476 155.501 11.6126C154.116 5.56919 148.963 0.835038 142.898 0.157201C141.204 -0.0318802 139.485 0.0430386 137.777 0.00022785C137.563 -0.00333971 137.349 0.0359035 137.121 0.0537413C137.121 1.46293 137.121 2.8186 137.121 4.26347C137.447 4.26347 137.721 4.26347 137.995 4.26347C138.949 4.26347 139.903 4.2599 140.853 4.26347C146.746 4.29558 151.338 8.69795 151.699 14.6593C152.046 20.4245 147.521 25.6617 141.857 26.0185C140.597 26.097 139.335 26.0542 138.072 26.0684C137.774 26.072 137.472 26.0684 137.121 26.0684C137.121 27.5311 137.121 28.8832 137.121 30.3031C138.563 30.3031 139.955 30.3031 141.39 30.3031C144.701 35.2121 147.995 40.0925 151.257 44.9301C152.958 44.9337 154.568 44.9337 156.347 44.9337ZM73.9864 22.5009C74.4144 31.327 78.1641 38.0091 85.7021 42.2616C93.4576 46.6319 103.048 45.6829 109.951 40.0461C113.409 37.2242 115.84 33.6602 117.208 29.3684C117.917 27.1458 118.299 24.8662 118.243 22.5116C116.805 22.5116 115.472 22.5116 114.142 22.5116C114.076 32.2118 106.52 40.3244 96.8074 40.6919C92.4123 40.8595 88.4416 39.536 85.0111 36.7247C80.5774 33.093 78.3886 28.2981 78.1956 22.5009C76.8136 22.5009 75.4842 22.5009 73.9864 22.5009ZM186.506 44.9337C186.716 44.6376 186.944 44.3165 187.172 43.9954C191.83 37.3277 196.489 30.6563 201.15 23.9885C202.336 22.2939 203.164 20.4352 203.595 18.4053C203.813 17.385 203.96 16.3468 203.914 15.248C202.504 15.248 201.15 15.248 199.8 15.248C199.344 22.4366 194.153 25.5975 190.27 26.0113C187.663 26.286 185.24 25.7438 183.068 24.2418C179.96 22.087 178.438 19.0118 178.242 15.1909C177.481 15.1909 176.811 15.1874 176.141 15.1909C175.481 15.1945 174.818 15.2088 174.173 15.2195C173.931 18.1377 175.204 21.9764 177.375 24.6485C181.058 29.1793 185.85 30.9132 191.68 30.1533C188.207 35.1372 184.829 39.9855 181.374 44.9408C183.142 44.9337 184.755 44.9337 186.506 44.9337ZM56.1639 4.26704C57.2232 4.26704 58.1984 4.26704 59.1735 4.26704C60.1837 4.26704 61.1939 4.26704 62.2006 4.26704C63.1828 4.26704 64.1649 4.26704 65.1471 4.26704C66.1292 4.26704 67.1114 4.26704 68.0935 4.26704C69.1037 4.26704 70.114 4.27417 71.1207 4.26347C72.0888 4.25276 73.0604 4.30985 74.004 4.23136C74.004 2.77223 74.004 1.41655 74.004 0.00022785C73.7269 0.00022785 73.5059 0.00022785 73.2884 0.00022785C60.2468 0.0109305 47.2088 0.0252008 34.1672 0.0394711C34.1462 0.0394711 34.1216 0.0680116 34.1006 0.0858494C34.0795 0.103687 34.062 0.12866 34.062 0.12866C34.062 1.50574 34.062 2.85785 34.062 4.2706C35.1038 4.2706 36.0824 4.2706 37.0611 4.2706C38.0713 4.2706 39.0815 4.2706 40.0882 4.2706C41.0704 4.2706 42.0525 4.2706 43.0347 4.2706C44.0168 4.2706 44.999 4.2706 45.9811 4.2706C46.9913 4.2706 48.0015 4.2599 49.0082 4.27417C49.9728 4.28844 50.948 4.20995 51.9547 4.32768C51.9547 7.40649 51.9547 10.3997 51.9547 13.3893C51.9547 16.4003 51.9512 19.4113 51.9582 22.4224C53.4139 22.4224 54.7433 22.4224 56.1639 22.4224C56.1639 16.3611 56.1639 10.3569 56.1639 4.26704ZM189.045 0.0466062C189.045 1.4665 189.045 2.8186 189.045 4.20995C202.385 4.20995 215.679 4.20995 228.998 4.20995C228.998 2.7972 228.998 1.44509 228.998 0.0466062C215.679 0.0466062 202.406 0.0466062 189.045 0.0466062ZM29.8282 32.6256C29.8423 32.4437 29.8668 32.3081 29.8598 32.1725C29.737 29.5896 28.7058 27.4491 26.8327 25.7152C25.8295 24.7877 24.7 24.0527 23.5004 23.4213C21.75 22.5009 19.9085 21.823 18.0424 21.2094C15.7765 20.4673 13.5035 19.7503 11.248 18.9725C9.70818 18.441 8.22092 17.7703 6.87397 16.8142C5.39373 15.7617 4.44665 14.3882 4.32038 12.5081C4.31687 12.4617 4.26426 12.4189 4.22216 12.3547C2.89977 12.3547 1.56685 12.3547 0.170791 12.3547C0.170791 12.6508 0.153253 12.9005 0.174299 13.1467C0.367222 15.3015 1.18451 17.1673 2.65774 18.7264C3.78019 19.9108 5.1061 20.8063 6.53372 21.5555C8.48399 22.5793 10.5535 23.2857 12.6336 23.9743C15.1381 24.8019 17.6355 25.6439 20.1155 26.5358C21.3326 26.9746 22.4656 27.6096 23.4934 28.4194C24.6965 29.3684 25.4892 30.5636 25.6576 32.1368C25.6751 32.301 25.7207 32.4615 25.7523 32.6292C27.1273 32.6256 28.4602 32.6256 29.8282 32.6256Z" fill="white"/>
<path d="M156.347 44.9333C154.568 44.9333 152.958 44.9333 151.261 44.9333C147.995 40.0957 144.701 35.2118 141.394 30.3064C139.959 30.3064 138.563 30.3064 137.125 30.3064C137.125 28.89 137.125 27.5344 137.125 26.0717C137.476 26.0717 137.774 26.0752 138.075 26.0717C139.338 26.061 140.601 26.1002 141.86 26.0217C147.529 25.665 152.05 20.4278 151.703 14.6626C151.345 8.70124 146.753 4.29888 140.857 4.26677C139.903 4.2632 138.949 4.26677 137.998 4.26677C137.725 4.26677 137.451 4.26677 137.125 4.26677C137.125 2.82191 137.125 1.46624 137.125 0.057054C137.353 0.0356487 137.567 -0.00359444 137.781 0.00354068C139.489 0.0427838 141.211 -0.0285673 142.902 0.160513C148.963 0.838349 154.116 5.5725 155.505 11.6159C157.189 18.9544 153.541 26.2286 146.697 29.179C146.469 29.2789 146.245 29.3859 145.961 29.5144C147.711 32.1151 149.437 34.6766 151.162 37.2381C152.864 39.764 154.565 42.2934 156.347 44.9333Z" fill="white"/>
<path d="M73.9866 22.5007C75.4844 22.5007 76.8173 22.5007 78.1994 22.5007C78.3923 28.298 80.5811 33.0928 85.0148 36.7246C88.4453 39.5359 92.416 40.8594 96.8111 40.6917C106.52 40.3243 114.076 32.2116 114.146 22.5114C115.476 22.5114 116.808 22.5114 118.247 22.5114C118.299 24.866 117.92 27.1457 117.212 29.3683C115.844 33.6601 113.413 37.2241 109.954 40.046C103.051 45.6792 93.4613 46.6317 85.7058 42.2615C78.1608 38.0089 74.4111 31.3269 73.9866 22.5007Z" fill="white"/>
<path d="M186.506 44.9338C184.759 44.9338 183.146 44.9338 181.371 44.9338C184.826 39.9785 188.2 35.1302 191.676 30.1463C185.846 30.9026 181.055 29.1724 177.372 24.6416C175.201 21.9695 173.927 18.1308 174.169 15.2125C174.815 15.2018 175.478 15.1911 176.137 15.184C176.807 15.1804 177.477 15.184 178.238 15.184C178.435 19.0048 179.957 22.0801 183.065 24.2349C185.236 25.7404 187.66 26.2826 190.266 26.0044C194.149 25.5941 199.344 22.4297 199.796 15.241C201.147 15.241 202.501 15.241 203.911 15.241C203.957 16.3398 203.806 17.378 203.592 18.3983C203.16 20.4283 202.333 22.287 201.147 23.9816C196.485 30.6493 191.827 37.3207 187.169 43.9884C186.944 44.3167 186.713 44.6377 186.506 44.9338Z" fill="white"/>
<path d="M56.1638 4.26708C56.1638 10.3569 56.1638 16.3612 56.1638 22.4189C54.7432 22.4189 53.4138 22.4189 51.9581 22.4189C51.9511 19.4079 51.9546 16.3969 51.9546 13.3858C51.9546 10.3962 51.9546 7.40298 51.9546 4.32416C50.9479 4.20286 49.9763 4.28135 49.0082 4.27064C47.998 4.25637 46.9878 4.26708 45.981 4.26708C44.9989 4.26708 44.0167 4.26708 43.0346 4.26708C42.0524 4.26708 41.0703 4.26708 40.0881 4.26708C39.0779 4.26708 38.0677 4.26708 37.061 4.26708C36.0824 4.26708 35.1037 4.26708 34.062 4.26708C34.062 2.85431 34.062 1.5022 34.062 0.12511C34.062 0.12511 34.0795 0.100137 34.1005 0.0822986C34.1216 0.0644607 34.1426 0.03592 34.1672 0.03592C47.2087 0.0252172 60.2468 0.0109469 73.2883 0.000244141C73.5093 0.000244141 73.7268 0.000244141 74.0039 0.000244141C74.0039 1.41658 74.0039 2.77226 74.0039 4.2314C73.0568 4.30989 72.0887 4.2528 71.1206 4.26351C70.1104 4.27421 69.1002 4.26708 68.0935 4.26708C67.1113 4.26708 66.1292 4.26708 65.147 4.26708C64.1649 4.26708 63.1827 4.26708 62.2006 4.26708C61.1904 4.26708 60.1801 4.26708 59.1734 4.26708C58.1983 4.26708 57.2232 4.26708 56.1638 4.26708Z" fill="white"/>
<path d="M189.046 0.0463867C202.406 0.0463867 215.679 0.0463867 228.998 0.0463867C228.998 1.44487 228.998 2.79697 228.998 4.20972C215.676 4.20972 202.385 4.20972 189.046 4.20972C189.046 2.81837 189.046 1.46627 189.046 0.0463867Z" fill="white"/>
<path d="M29.8281 32.6255C28.4601 32.6255 27.1237 32.6255 25.7522 32.6255C25.7206 32.4578 25.675 32.2973 25.6575 32.1332C25.4891 30.5599 24.6964 29.3647 23.4933 28.4158C22.4655 27.6059 21.3325 26.9709 20.1154 26.5321C17.6354 25.6402 15.1345 24.7983 12.6335 23.9706C10.5534 23.282 8.4839 22.5757 6.53363 21.5518C5.10601 20.8026 3.7766 19.9071 2.65765 18.7227C1.18091 17.1637 0.367132 15.2978 0.177717 13.1502C0.156671 12.904 0.174209 12.6543 0.174209 12.3582C1.57027 12.3582 2.90318 12.3582 4.22558 12.3582C4.26767 12.4224 4.32029 12.4652 4.3238 12.5116C4.45007 14.3917 5.39715 15.7652 6.87739 16.8176C8.22434 17.7737 9.70809 18.4444 11.2515 18.976C13.5034 19.7573 15.7799 20.4708 18.0458 21.2128C19.9154 21.8265 21.757 22.5043 23.5038 23.4247C24.7034 24.0562 25.8329 24.7911 26.8361 25.7187C28.7092 27.4525 29.7405 29.5931 29.8632 32.176C29.8702 32.308 29.8422 32.4471 29.8281 32.6255Z" fill="white"/>
</svg>
