<svg width="315" height="76" viewBox="0 0 315 76" fill="none" xmlns="http://www.w3.org/2000/svg">
<path d="M0.295105 33.7953C3.148 33.7953 5.63534 33.7953 8.24983 33.7953C9.71203 41.3493 10.9438 48.8388 13.002 56.603C14.2576 54.3489 14.6152 52.2321 15.2589 50.2365C15.9502 48.0874 16.5145 45.898 17.1184 43.7166C17.7065 41.616 18.2787 39.5154 18.8826 37.342C20.9806 37.342 22.9752 37.342 25.1288 37.342C27.0757 43.5954 28.5936 50.0022 30.8346 56.1586C31.0173 56.1505 31.2001 56.1424 31.3829 56.1344C32.8133 48.7661 34.2437 41.3978 35.7298 33.7306C38.1059 33.569 40.5773 33.6417 43.303 33.6821C41.07 45.1304 38.3284 56.1344 34.8079 67.0575C32.5828 67.0575 30.4372 67.0575 28.0611 67.0575C25.6135 60.8769 23.9447 54.3165 21.7593 47.5461C19.6534 54.2761 17.6509 60.6991 15.6483 67.0979C13.2245 67.0979 11.0789 67.0979 8.79021 67.0979C5.238 56.2798 2.55199 45.2597 0.295105 33.7953Z" fill="white"/>
<path d="M76.004 66.2498C76.004 54.3976 76.004 42.7554 76.004 30.9274C78.245 30.5476 80.4145 30.176 82.8939 29.7559C83.0846 31.9615 82.9734 33.9732 82.9972 35.985C83.0211 37.9967 83.0052 40.0165 83.0052 41.9151C85.0872 41.6889 86.907 41.3415 88.7348 41.3334C93.193 41.3011 96.5624 43.733 98.0882 48.023C99.4391 51.8284 99.5663 55.7791 98.3822 59.6006C96.92 64.3108 93.4472 66.9366 88.7189 67.5506C84.4833 68.1081 80.2715 67.5667 76.004 66.2498ZM83.0052 61.2326C84.0303 61.4023 84.6819 61.5881 85.3415 61.5962C88.4169 61.6527 90.348 60.8044 91.4288 57.5081C92.0804 55.5125 92.0566 53.4685 91.6433 51.481C90.6977 46.9808 87.0342 46.7223 83.8634 47.9584C83.0767 48.2654 83.0052 48.8956 83.0052 49.6066C83.0131 51.2628 83.0131 52.9271 83.0131 54.5834C83.0052 56.7567 83.0052 58.93 83.0052 61.2326Z" fill="white"/>
<path d="M227.883 66.6454C227.883 69.7882 227.883 72.7129 227.883 75.7749C225.491 75.7749 223.313 75.7749 221.009 75.7749C221.009 64.771 221.009 53.8964 221.009 42.7955C221.692 42.5936 222.368 42.3673 223.059 42.1977C226.413 41.3897 229.83 41.1312 233.255 41.4059C238.595 41.8341 242.465 45.389 243.61 50.7859C244.404 54.5023 244.086 58.1299 242.584 61.6524C240.653 66.1687 235.854 68.132 231.53 67.4452C230.442 67.2675 229.369 66.9766 227.883 66.6454ZM227.939 60.5213C228.574 60.8122 229.035 61.0546 229.52 61.2323C229.87 61.3616 230.243 61.402 230.609 61.4585C233.915 61.9594 235.901 60.6506 236.664 57.33C237.109 55.3991 237.093 53.4359 236.505 51.513C235.329 47.6754 231.674 46.1161 227.946 47.9258C227.939 52.0462 227.939 56.199 227.939 60.5213Z" fill="white"/>
<path d="M66.9606 60.4648C67.2626 62.4038 67.5566 64.2297 67.8904 66.3545C66.3089 66.7343 64.8308 67.1786 63.3209 67.4291C60.3647 67.9138 57.3688 68.035 54.4682 67.1867C50.4789 66.0233 47.6896 63.5026 46.6009 59.3014C45.5201 55.1325 45.6314 51.0283 47.6975 47.1906C50.0418 42.8359 53.8325 40.9454 58.6244 41.1474C65.6414 41.4382 68.8519 46.0434 69.3685 52.6684C69.4638 53.9287 69.3844 55.2133 69.3844 56.7403C63.909 56.7403 58.6562 56.7403 53.3636 56.7403C53.8245 59.3903 55.247 60.8445 57.5833 61.3374C59.8959 61.8221 62.1766 61.5313 64.4494 61.1192C65.2361 60.9738 65.999 60.7153 66.9606 60.4648ZM62.1766 51.6989C62.2322 49.0246 60.9131 47.3684 58.6244 47.1664C55.549 46.8917 53.9993 48.2006 53.3795 51.6989C56.3278 51.6989 59.2601 51.6989 62.1766 51.6989Z" fill="white"/>
<path d="M292.188 56.8133C286.785 56.8133 281.587 56.8133 276.287 56.8133C276.708 59.536 278.369 60.7559 280.578 61.3942C282.954 62.0809 285.306 61.58 287.651 61.1437C288.382 61.0064 289.089 60.7882 289.955 60.5701C290.265 62.3799 290.567 64.1492 290.877 65.959C289.383 67.082 287.643 67.1951 285.982 67.4375C283.018 67.8737 279.99 68.003 277.121 67.0012C271.948 65.1995 269.707 61.5638 269.159 56.28C268.896 53.7835 269.119 51.279 270.041 48.9037C272.846 41.6566 280.141 39.7337 286.085 42.1979C288.795 43.3209 290.52 45.4134 291.481 48.2089C292.427 50.9073 292.474 53.6623 292.188 56.8133ZM285.569 51.796C285.354 48.015 283.026 46.9485 280.824 47.0697C278.202 47.2151 276.795 48.6855 276.533 51.796C279.497 51.796 282.446 51.796 285.569 51.796Z" fill="white"/>
<path d="M192.917 56.7649C187.521 56.7649 182.348 56.7649 177.063 56.7649C177.19 58.7686 178.12 59.9643 179.598 60.6995C181.291 61.5478 183.111 61.9518 185.01 61.6609C186.838 61.3782 188.649 61.0469 190.66 60.7076C190.97 62.4042 191.288 64.1655 191.614 65.9672C189.81 67.2194 187.751 67.3083 185.805 67.5345C182.777 67.89 179.717 67.8981 176.809 66.6054C173.614 65.1835 171.492 62.8405 170.499 59.423C169.291 55.2541 169.474 51.1902 171.516 47.3445C173.543 43.5311 176.737 41.4305 181.044 41.2609C183.762 41.1478 186.385 41.479 188.657 43.2322C191.248 45.2359 192.543 47.9828 192.877 51.1741C193.068 52.8869 192.917 54.6401 192.917 56.7649ZM186.242 51.78C185.924 48.5079 184.501 47.1668 181.768 47.0456C179.479 46.9406 176.992 48.8554 177.23 51.78C180.162 51.78 183.111 51.78 186.242 51.78Z" fill="white"/>
<path d="M141.891 67.0413C139.586 67.0413 137.528 67.0413 135.327 67.0413C135.255 66.3788 135.152 65.7971 135.144 65.2234C135.128 61.3615 135.152 57.4916 135.12 53.6297C135.112 52.5713 135.001 51.5048 134.818 50.4707C134.461 48.5236 133.435 47.4732 131.544 47.3036C130.312 47.1905 129.057 47.3844 127.587 47.4571C127.587 54.0983 127.587 60.5051 127.587 67.0251C125.226 67.0251 123.097 67.0251 120.975 67.0251C120.562 65.4335 120.411 46.5118 120.8 42.7307C121.547 42.5368 122.374 42.2944 123.216 42.1005C126.585 41.3411 130.018 41.0664 133.435 41.4057C138.561 41.9147 141.438 44.6617 141.803 49.792C142.201 55.4394 141.891 61.1353 141.891 67.0413Z" fill="white"/>
<path d="M99.7966 6.56839C99.8125 6.6411 99.8602 6.73805 99.8363 6.78653C98.5172 9.10526 98.9066 9.89702 101.481 9.91318C105.026 9.92933 108.117 8.56395 110.938 6.47952C111.224 6.26946 111.447 5.94629 111.653 5.63928C111.86 5.33227 112.003 4.98487 112.233 4.55667C113.481 5.203 114.721 5.84126 115.817 6.41488C116.286 7.72371 115.539 8.36197 114.824 8.86288C111.288 11.3755 107.338 12.7732 103.039 13.0075C101.95 13.0641 100.822 12.7813 99.7489 12.4904C98.3741 12.1188 97.8258 10.9473 97.5636 9.38803C96.6497 10.608 96.2762 11.7148 96.2364 13.0237C96.1729 15.1081 97.2457 16.1988 98.7556 16.5866C100.591 17.0552 102.61 17.2895 104.469 17.0309C111.828 16.0291 118.05 12.5147 123.526 7.52981C123.971 7.12585 124.4 6.71381 124.829 6.30177C124.877 6.26138 124.869 6.15635 124.924 5.93013C123.446 5.53425 121.968 5.13837 120.085 4.63746C124.471 2.88427 128.612 1.43002 133.054 0C132.561 4.57283 131.647 8.92751 130.519 13.3226C129.883 11.8683 129.247 10.4141 128.492 8.69322C127.555 9.80007 126.808 10.6969 126.037 11.5856C122.024 16.2069 117.224 19.5921 111.351 21.3776C107.791 22.4602 104.183 22.6945 100.567 22.137C97.7781 21.7088 94.8616 19.0669 94.8537 15.8191C94.8378 11.7391 96.3954 8.70938 99.8284 6.64918C99.8363 6.64918 99.7966 6.56839 99.7966 6.56839Z" fill="white"/>
<path d="M148.32 35.581C150.68 35.177 152.857 34.8054 155.289 34.3933C155.289 36.906 155.289 39.2166 155.289 41.7293C158.158 41.7293 160.804 41.7293 163.649 41.7293C163.983 43.7491 163.792 45.5831 163.784 47.611C160.963 47.611 158.309 47.611 155.543 47.611C155.464 48.2815 155.353 48.7825 155.353 49.2834C155.337 52.0061 155.305 54.7369 155.353 57.4596C155.408 60.562 157.069 62.0324 160.097 61.6769C161.265 61.5396 162.417 61.2568 163.673 61.0225C163.752 61.3538 163.856 61.7093 163.927 62.0648C164.19 63.3898 164.452 64.7147 164.722 66.1125C163.609 67.0577 162.258 67.1628 160.971 67.4051C158.746 67.8333 156.513 67.801 154.336 67.1789C151.554 66.3872 149.663 64.5693 148.908 61.6931C148.598 60.5297 148.352 59.3097 148.344 58.114C148.296 50.7053 148.32 43.2886 148.32 35.581Z" fill="white"/>
<path d="M313.191 61.0063C313.501 62.8727 313.78 64.5612 314.066 66.2983C310.521 67.9384 307.001 68.0595 303.488 67.1062C299.984 66.1609 297.957 63.0908 297.806 58.7765C297.711 55.981 297.767 53.1775 297.767 50.374C297.759 45.5346 297.767 40.687 297.767 35.5728C300 35.1931 302.217 34.8134 304.617 34.4094C304.617 36.9705 304.617 39.2247 304.617 41.7212C307.39 41.7212 310.029 41.7212 312.723 41.7212C313.319 43.7006 312.953 45.4942 313.072 47.5463C310.347 47.7968 307.692 47.5463 304.935 47.724C304.847 48.2977 304.72 48.7986 304.72 49.2914C304.72 52.0949 304.776 54.8903 304.784 57.6938C304.784 61.1356 307.255 62.0486 309.695 61.6446C310.792 61.4588 311.88 61.2406 313.191 61.0063Z" fill="white"/>
<path d="M265.654 42.19C265.257 44.2098 264.899 46.0276 264.51 47.9828C261.863 47.5788 259.328 46.6335 256.523 47.9343C256.523 54.0987 256.523 60.4974 256.523 67.0173C254.147 67.0173 252.009 67.0173 249.713 67.0173C249.641 66.4437 249.522 65.862 249.514 65.2884C249.498 58.5503 249.498 51.8123 249.514 45.0743C249.514 43.1918 249.554 43.2241 251.397 42.6263C255.967 41.1316 260.568 40.9135 265.654 42.19Z" fill="white"/>
<path d="M206.816 47.8853C206.816 54.1629 206.816 60.4404 206.816 66.92C204.503 67.3643 202.318 67.0331 199.87 67.13C199.711 59.0589 199.791 51.2139 199.823 43.2559C205.044 41.2441 210.233 40.6463 215.851 42.2298C215.462 44.2092 215.096 46.0917 214.715 48.0065C212.1 47.5459 209.629 46.6976 206.816 47.8853Z" fill="white"/>
<path d="M112.774 67.0332C110.271 67.0332 108.141 67.0332 105.876 67.0332C105.876 58.6793 105.876 50.4385 105.876 41.9149C108.046 41.7129 110.247 41.8745 112.702 41.8261C112.869 50.2284 112.742 58.5177 112.774 67.0332Z" fill="white"/>
<path d="M121.706 21.0464C122.215 23.5913 121.293 24.8921 119.457 25.999C116.763 27.6148 114.037 29.1418 111.002 29.9417C109.659 30.2972 108.212 30.3537 106.814 30.378C104.676 30.4183 102.57 30.4507 100.44 29.6831C97.3333 28.5601 95.3307 26.4433 94.1148 23.4782C93.3678 21.6604 92.9228 19.7375 93.336 17.5723C93.8049 18.9377 94.1466 20.2142 94.679 21.4019C95.7916 23.8822 97.7386 25.2557 100.337 26.0071C102.626 26.6696 104.835 26.7503 107.163 26.3949C111.002 25.8131 114.721 24.9002 118.217 23.1712C119.393 22.5814 120.474 21.7977 121.706 21.0464Z" fill="white"/>
<path d="M101.402 32.2444C108.101 34.3611 114.109 32.6564 119.894 28.738C116.262 34.6762 107.052 36.3243 101.402 32.2444Z" fill="white"/>
<path d="M99.8364 6.64933C100.091 6.55238 100.361 6.33425 100.599 6.36657C102.562 6.59278 104.191 6.05149 105.51 4.49225C106.361 3.48238 106.448 3.52278 108.038 4.37915C106.893 6.19691 105.058 6.73012 103.23 7.15023C102.077 7.40875 100.75 7.93388 99.8046 6.57662L99.8364 6.64933Z" fill="white"/>
</svg>
