<svg width="138" height="103" viewBox="0 0 138 103" fill="none" xmlns="http://www.w3.org/2000/svg">
<path d="M49.5554 0.887041V7.17691C49.5554 7.36843 49.3892 7.51291 49.1992 7.49275C48.7344 7.44907 48.2595 7.42219 47.7743 7.42219C43.3877 7.42219 41.1961 9.55578 41.1961 13.833V27.9348C41.1961 28.1129 41.0502 28.254 40.8704 28.254H33.5356C33.3558 28.254 33.21 28.1096 33.21 27.9348V0.96096C33.21 0.782882 33.3558 0.638403 33.5356 0.638403H40.063C40.2428 0.638403 40.3887 0.782882 40.3887 0.96096V5.34237C41.1079 3.74302 42.1223 2.51999 43.4386 1.68335C44.7515 0.850081 46.1968 0.430084 47.7811 0.430084C48.3816 0.430084 48.8939 0.477124 49.3179 0.574563C49.457 0.608163 49.5554 0.739202 49.5554 0.887041Z" fill="white"/>
<path d="M71.4681 1.81775C73.5511 3.0307 75.1524 4.7342 76.2686 6.94171C77.3847 9.14921 77.9411 11.6793 77.9411 14.5319L77.8868 16.558H57.9317C58.3625 20.9058 60.5033 23.0797 64.3504 23.0797C66.7829 23.0797 68.4249 22.1758 69.2799 20.3816C69.3341 20.2707 69.4461 20.1934 69.5716 20.1934H76.8623C77.0794 20.1934 77.2388 20.4018 77.1744 20.6067C76.445 22.9856 74.9896 24.9377 72.8149 26.4732C70.5114 28.0894 67.6175 28.9025 64.1299 28.9025C61.1818 28.9025 58.6475 28.2977 56.5272 27.0848C54.4034 25.8752 52.7885 24.1952 51.6724 22.0381C50.5562 19.881 50.0032 17.4181 50.0032 14.6394C50.0032 11.7935 50.5868 9.25337 51.7538 7.02907C52.9209 4.80476 54.5764 3.07774 56.7171 1.84799C58.8545 0.611515 61.3107 0 64.079 0C66.9186 0 69.3816 0.604795 71.4681 1.81775ZM69.7955 11.6994C69.6157 9.88168 69.0322 8.4537 68.0416 7.39866C67.0509 6.35035 65.7312 5.81947 64.079 5.81947C62.4981 5.81947 61.1852 6.31003 60.1437 7.28778C59.0987 8.2689 58.3999 9.74057 58.0403 11.6961H69.7955V11.6994Z" fill="white"/>
<path d="M105.838 1.08527L89.8288 38.1055C89.7779 38.2231 89.6625 38.3004 89.5302 38.3004H81.8358C81.5984 38.3004 81.4423 38.0584 81.5407 37.8434L87.152 25.7979L76.6147 1.08527C76.5231 0.873595 76.6825 0.638397 76.9132 0.638397H84.6653C84.801 0.638397 84.9231 0.722397 84.9706 0.850076L91.257 17.8952L97.8658 0.843356C97.9133 0.719037 98.0354 0.638397 98.1677 0.638397H105.543C105.774 0.638397 105.93 0.873595 105.838 1.08527Z" fill="white"/>
<path d="M7.06675 69.1651C4.87175 67.9857 3.14831 66.3124 1.88967 64.1385C0.627627 61.9714 0 59.4245 0 56.5047C0 53.5882 0.627627 51.0313 1.88627 48.8406C3.14492 46.6499 4.86835 44.9665 7.06335 43.7905C9.25496 42.6179 11.7214 42.0299 14.4524 42.0299C17.1834 42.0299 19.6464 42.6179 21.8414 43.7905C24.033 44.9699 25.7599 46.6499 27.0185 48.8406C28.2772 51.0313 28.9048 53.5882 28.9048 56.5047C28.9048 59.4245 28.2738 61.9714 27.0185 64.1419C25.7599 66.3158 24.033 67.9891 21.8414 69.1684C19.6464 70.3411 17.1834 70.9291 14.4524 70.9291C11.7214 70.9257 9.25835 70.3411 7.06675 69.1651ZM19.2631 62.4317C20.4742 60.9768 21.0781 58.9944 21.0781 56.5013C21.0781 53.9746 20.4742 51.9788 19.2631 50.5206C18.0519 49.059 16.4744 48.3299 14.5304 48.3299C12.5865 48.3299 11.0089 49.059 9.79777 50.5206C8.58662 51.9822 7.98274 53.978 7.98274 56.5013C7.98274 58.9911 8.5968 60.9734 9.82491 62.4317C11.053 63.8933 12.6408 64.6224 14.5847 64.6224C16.4947 64.6224 18.0519 63.8933 19.2631 62.4317Z" fill="white"/>
<path d="M62.7458 64.0445C62.2335 64.115 61.616 64.152 60.8968 64.152C59.6721 64.152 58.7663 63.8395 58.1726 63.2112C57.5789 62.5896 57.2803 61.6555 57.2803 60.4123V49.1329H62.5015C62.6813 49.1329 62.8272 48.9884 62.8272 48.8137V42.9875C62.8272 42.8094 62.6813 42.665 62.5015 42.665H57.2803V34.9135C57.2803 34.7354 57.1344 34.5909 56.9546 34.5909H49.5656C49.3858 34.5909 49.2399 34.7354 49.2399 34.9135V42.665H46.994H44.9822H41.169V34.9135C41.169 34.7354 41.0231 34.5909 40.8433 34.5909H33.461C33.2812 34.5909 33.1353 34.7354 33.1353 34.9135V42.665H29.5629C29.3831 42.665 29.2372 42.8094 29.2372 42.9875V48.8137C29.2372 48.9918 29.3831 49.1329 29.5629 49.1329H33.1387V60.6778C33.1387 67.4078 36.3379 70.7711 42.7397 70.7711C43.7439 70.7711 44.5276 70.7443 45.0874 70.6939C45.5352 70.6502 46.0339 70.5662 46.5869 70.4452C46.8312 70.3915 47.0008 70.1731 47.0008 69.9244V64.3637C47.0008 64.1688 46.8312 64.0176 46.6378 64.0445C46.1255 64.115 45.5115 64.152 44.7922 64.152C43.5675 64.152 42.6617 63.8395 42.068 63.2112C41.4743 62.5896 41.1757 61.6555 41.1757 60.4123V49.1329H44.989H47.0008H49.2467V60.6778C49.2467 67.4078 52.4459 70.7711 58.8477 70.7711C59.8519 70.7711 60.6356 70.7443 61.1954 70.6939C61.6432 70.6502 62.1419 70.5662 62.6949 70.4452C62.9392 70.3915 63.1088 70.1731 63.1088 69.9244V64.3637C63.1088 64.1688 62.9392 64.0176 62.7458 64.0445Z" fill="white"/>
<path d="M85.605 43.8443C87.6914 45.0573 89.2893 46.7608 90.4055 48.9683C91.5216 51.1758 92.078 53.7058 92.078 56.5585L92.0237 58.5845H72.0686C72.5028 62.9323 74.6401 65.1062 78.4873 65.1062C80.9198 65.1062 82.5618 64.2058 83.4168 62.4082C83.471 62.2973 83.583 62.22 83.7085 62.22H90.9992C91.2163 62.22 91.3757 62.4283 91.3113 62.6333C90.5819 65.0121 89.1265 66.9643 86.9518 68.4998C84.6483 70.1159 81.7544 70.9291 78.2668 70.9291C75.3187 70.9291 72.7844 70.3243 70.6606 69.1113C68.5369 67.9017 66.922 66.2217 65.8059 64.0646C64.6897 61.9075 64.1367 59.4447 64.1367 56.666C64.1367 53.8201 64.7202 51.2799 65.8873 49.0556C67.0543 46.8313 68.7099 45.1043 70.8472 43.8745C72.988 42.6448 75.4408 42.0299 78.2091 42.0299C81.0555 42.0266 83.5185 42.6314 85.605 43.8443ZM83.9324 53.726C83.7526 51.9082 83.1691 50.4803 82.1785 49.4286C81.1878 48.3803 79.8681 47.8494 78.2159 47.8494C76.635 47.8494 75.3221 48.34 74.2805 49.3177C73.2356 50.2988 72.5367 51.7705 72.1771 53.726H83.9324Z" fill="white"/>
<path d="M110.68 42.9136V49.2035C110.68 49.395 110.517 49.5395 110.323 49.5193C109.859 49.4756 109.384 49.4487 108.898 49.4487C104.512 49.4487 102.32 51.5823 102.32 55.8596V69.9614C102.32 70.1395 102.174 70.2806 101.995 70.2806H94.6598C94.48 70.2806 94.3375 70.1361 94.3375 69.9614V42.9808C94.3375 42.8027 94.4834 42.6582 94.6598 42.6582H101.187C101.367 42.6582 101.513 42.8027 101.513 42.9808V47.3622C102.232 45.7629 103.246 44.5398 104.563 43.7032C105.876 42.8699 107.321 42.4499 108.905 42.4499C109.506 42.4499 110.018 42.497 110.442 42.5944C110.581 42.6347 110.68 42.7691 110.68 42.9136Z" fill="white"/>
<path d="M116.159 68.6543C114.137 67.2129 112.817 65.2003 112.199 62.6131C112.152 62.4115 112.308 62.22 112.518 62.22H119.561C119.751 62.22 119.911 62.3443 119.972 62.5224C120.664 64.5283 122.445 65.5329 125.325 65.5329C126.944 65.5329 128.131 65.2809 128.888 64.7837C129.641 64.283 130.021 63.5909 130.021 62.6971C130.021 61.2019 128.996 60.2813 126.947 59.9251L120.959 58.8029C118.048 58.2619 115.935 57.3346 114.622 55.994C113.309 54.6634 112.654 52.9095 112.654 50.7356C112.654 49.1363 113.112 47.6747 114.031 46.3542C114.947 45.0404 116.315 43.9888 118.13 43.2059C119.945 42.423 122.129 42.0266 124.684 42.0266C128.423 42.0266 131.381 42.8497 133.556 44.4827C135.629 46.0518 136.945 48.1484 137.498 50.7759C137.539 50.9742 137.383 51.1623 137.176 51.1623H130.112C129.905 51.1623 129.732 51.0145 129.688 50.8095C129.461 49.7713 128.942 48.9649 128.131 48.387C127.235 47.7419 126.048 47.4227 124.572 47.4227C123.171 47.4227 122.092 47.6915 121.339 48.2223C120.582 48.7599 120.206 49.4353 120.206 50.2585C120.206 50.9708 120.447 51.5353 120.935 51.962C121.42 52.3921 122.309 52.7113 123.605 52.9263L129.535 53.9444C132.558 54.4753 134.723 55.4228 136.036 56.7701C137.349 58.1242 138.003 59.9419 138.003 62.22C138.003 63.7857 137.545 65.2272 136.626 66.551C135.71 67.8648 134.316 68.9231 132.446 69.7262C130.574 70.5292 128.256 70.9291 125.488 70.9291C121.387 70.9257 118.279 70.1697 116.159 68.6543Z" fill="white"/>
<path d="M70.1756 101.239C67.967 100.06 66.23 98.3867 64.9645 96.2128C63.6957 94.0423 63.0647 91.4954 63.0647 88.5756C63.0647 85.6592 63.6957 83.1022 64.9645 80.9115C66.23 78.7208 67.967 77.0375 70.1756 75.8615C72.3841 74.6889 74.8641 74.1009 77.6155 74.1009C80.3669 74.1009 82.8435 74.6889 85.0554 75.8615C87.2606 77.0408 88.9976 78.7208 90.2664 80.9115C91.5319 83.1022 92.1663 85.6592 92.1663 88.5756C92.1663 91.4954 91.5319 94.0423 90.2664 96.2128C88.9976 98.3867 87.2606 100.06 85.0554 101.239C82.8468 102.412 80.3669 103 77.6155 103C74.8641 103 72.3841 102.412 70.1756 101.239ZM82.2294 94.506C83.4236 93.0511 84.0207 91.0687 84.0207 88.5756C84.0207 86.0489 83.4236 84.0531 82.2294 82.5949C81.0352 81.1333 79.478 80.4042 77.5578 80.4042C75.641 80.4042 74.0838 81.1333 72.8896 82.5949C71.6954 84.0565 71.0983 86.0523 71.0983 88.5756C71.0983 91.0654 71.7022 93.0477 72.9168 94.506C74.1313 95.9676 75.6953 96.6967 77.6155 96.6967C79.495 96.6967 81.0352 95.9676 82.2294 94.506Z" fill="white"/>
<path d="M135.188 76.9837C136.955 78.909 137.841 81.5667 137.841 84.9469V102.039C137.841 102.217 137.698 102.358 137.518 102.358H130.234C130.058 102.358 129.912 102.214 129.912 102.039V86.6537C129.912 84.7285 129.498 83.2837 128.677 82.3294C127.856 81.3651 126.438 80.8846 124.976 80.8846C123.51 80.8846 122.333 81.3618 121.437 82.3294C120.545 83.287 120.097 84.6579 120.097 86.442V102.039C120.097 102.217 119.955 102.358 119.775 102.358H112.437C112.26 102.358 112.115 102.214 112.115 102.039V86.6537C112.115 84.7285 111.704 83.2837 110.883 82.3294C110.062 81.3651 108.919 80.8846 107.457 80.8846C105.991 80.8846 104.536 81.355 103.647 82.3026C102.754 83.24 102.31 84.6243 102.31 86.4387V102.036C102.31 102.214 102.168 102.355 101.988 102.355H94.653C94.4766 102.355 94.3307 102.21 94.3307 102.036V75.0618C94.3307 74.8837 94.4766 74.7393 94.653 74.7393H101.184C101.36 74.7393 101.506 74.8837 101.506 75.0618V78.6435C102.398 77.1484 103.575 76.0194 105.041 75.2533C106.507 74.4873 108.444 74.1009 110.3 74.1009C112.264 74.1009 113.984 74.541 115.466 75.4079C116.949 76.2815 118.099 77.5213 118.92 79.1207C119.85 77.4508 121.071 76.1908 122.591 75.3575C124.107 74.5209 126.106 74.1009 128.033 74.1009C131.038 74.1009 133.42 75.0618 135.188 76.9837Z" fill="white"/>
<path d="M19.2699 18.7218C18.0146 20.096 16.4574 20.7781 14.5915 20.7781C12.6883 20.7781 11.1107 20.1027 9.85884 18.7487C8.60698 17.3979 7.97935 15.6373 7.97935 13.4634C7.97935 11.2895 8.5968 9.53225 9.8317 8.20506C11.0632 6.86443 12.6509 6.19579 14.5915 6.19579C16.4608 6.19579 18.018 6.86443 19.2699 8.20506C20.5183 9.53561 21.146 11.2727 21.146 13.413C21.1426 15.5802 20.5183 17.3543 19.2699 18.7218ZM28.9116 0.638395H22.2316C22.0518 0.638395 21.9059 0.782874 21.9059 0.960953V4.64684C20.9288 3.11806 19.6702 1.95887 18.1299 1.17935C16.5897 0.396477 14.8425 0 12.8884 0C10.534 0 8.38985 0.544316 6.45269 1.62959C4.51553 2.71486 2.98547 4.28061 1.86253 6.33355C0.739585 8.37642 0.17981 10.7586 0.17981 13.4634C0.17981 16.1682 0.739585 18.5437 1.86253 20.5933C2.98547 22.6462 4.50535 24.2187 6.42555 25.3241C8.34236 26.4296 10.4627 26.9772 12.7799 26.9772C14.6967 26.9772 16.3387 26.6782 17.6957 26.0734C19.0561 25.4652 20.2028 24.4707 21.146 23.083V27.0814C21.146 29.1478 20.6201 30.7034 19.5718 31.7551C18.5235 32.8068 16.9833 33.3343 14.9545 33.3343C12.997 33.3343 11.5755 32.9781 10.69 32.2658C10.1133 31.8022 9.70278 31.2074 9.45512 30.4783C9.29906 30.0113 9.22782 29.5207 9.22103 29.0302L9.21764 28.6236C9.21764 28.5195 9.13283 28.4355 9.02766 28.4355H0.970281C0.865111 28.4355 0.776904 28.5228 0.780296 28.627C0.804044 29.9777 1.06188 31.3183 1.58773 32.5682C2.22553 34.0869 3.17885 35.3604 4.44767 36.3818C6.56464 38.0853 10.0861 38.9421 15.0122 38.9421C19.8262 38.9421 23.402 37.8199 25.7395 35.5788C28.0736 33.3343 29.2406 30.4145 29.2406 26.8193V0.960953C29.2373 0.782874 29.0914 0.638395 28.9116 0.638395Z" fill="white"/>
<path d="M7.06335 101.152C4.86835 99.9794 3.14492 98.3162 1.88627 96.1524C0.627627 93.9919 0 91.4585 0 88.5521C0 85.6491 0.627627 83.1056 1.88627 80.925C3.14492 78.7443 4.86835 77.0711 7.06335 75.8984C9.25496 74.7292 11.7214 74.1445 14.4524 74.1445C17.1834 74.1445 19.6464 74.7292 21.8414 75.8984C24.033 77.0711 25.7599 78.7443 27.0185 80.925C28.2772 83.1056 28.9048 85.6491 28.9048 88.5521C28.9048 91.4585 28.2738 93.9953 27.0185 96.1524C25.7599 98.3162 24.033 99.9794 21.8414 101.152C19.6464 102.321 17.1834 102.903 14.4524 102.903C11.7214 102.903 9.25835 102.321 7.06335 101.152Z" fill="#D9FF4A"/>
<path d="M60.1776 92.527H52.775C52.6291 92.527 52.5036 92.6278 52.4629 92.7655C52.0965 94.0726 51.5265 95.0436 50.7462 95.682C49.9422 96.3372 48.8124 96.6732 47.3604 96.69C45.447 96.6866 43.7643 95.9273 42.5565 94.4892C41.3386 93.0444 40.7177 91.0486 40.7177 88.5588C40.7177 86.0355 41.3284 84.0229 42.5294 82.5747C43.7202 81.1333 45.2977 80.4042 47.2179 80.4042L47.2111 80.4008C48.7107 80.4042 49.8981 80.7435 50.7734 81.4122C51.5978 82.0472 52.1677 82.9981 52.4696 84.2648C52.5036 84.4093 52.6325 84.5168 52.7818 84.5168H60.2319C60.432 84.5168 60.5881 84.3354 60.5542 84.1405C60.0351 81.177 58.6916 78.7847 56.517 76.9535C54.2508 75.0484 51.1737 74.0975 47.2926 74.0975C44.5615 74.0975 41.3047 74.6754 39.147 75.8313C36.9893 76.9938 35.31 78.6671 34.1056 80.8578C32.9012 83.0485 32.2974 85.6222 32.2974 88.5723C32.2974 91.4921 32.8979 94.0457 34.1056 96.2364C35.31 98.4271 36.9927 100.107 39.147 101.263C41.3047 102.419 44.5615 102.997 47.2926 102.997C51.0312 102.997 54.054 102.046 56.3542 100.141C58.5627 98.3129 59.9435 95.9004 60.4965 92.9033C60.5372 92.7118 60.3811 92.527 60.1776 92.527Z" fill="white"/>
</svg>
